<?xml version="1.0" encoding="UTF-8"?>
<svg width="149px" height="51px" viewBox="0 0 149 51" version="1.1" xmlns="http://www.w3.org/2000/svg" xmlns:xlink="http://www.w3.org/1999/xlink">
    <title>LOGO/Principal</title>
    <g id="LOGO/Principal" stroke="none" stroke-width="1" fill="none" fill-rule="evenodd">
        <path d="M6.71748004,11.67936 L6.71748004,27.01776 C6.71748004,27.0949539 6.68681484,27.1689862 6.6322305,27.2235705 C6.57764616,27.2781548 6.50361391,27.30882 6.42642,27.30882 L0.74382,27.30882 C0.5866916,27.3038293 0.461920763,27.1749676 0.461999962,27.01776 L0.461999962,11.67936 C0.461999962,11.518612 0.592312001,11.3883 0.75306,11.3883 L6.43566,11.3883 C6.5927884,11.3932907 6.71755924,11.5221524 6.71748004,11.67936 Z" id="Path" fill="#1C246B" fill-rule="nonzero"></path>
        <path d="M15.35688,11.96118 L15.35688,14.01246 C16.3548,12.29998 17.97334,11.44374 20.2125,11.44374 C21.8554152,11.383529 23.4463342,12.0252725 24.58764,13.20858 C25.71492,14.38206 26.2801,16.01446 26.28318,18.10578 L26.28318,27.01776 C26.2806564,27.1792525 26.1490122,27.30882 25.9875,27.30882 L22.638,27.30882 C22.4764878,27.30882 22.3448436,27.1792525 22.34232,27.01776 L22.34232,18.66942 C22.4130666,17.648349 22.0814172,16.640135 21.41832,15.86046 C20.7464867,15.1920385 19.8238319,14.8380746 18.87732,14.88564 C17.9267177,14.8381671 16.9998282,15.1918266 16.32246,15.86046 C15.6540354,16.6371358 15.3216459,17.6475999 15.39846,18.66942 L15.39846,27.01776 C15.39846,27.0949539 15.3677948,27.1689862 15.3132105,27.2235705 C15.2586262,27.2781548 15.1845939,27.30882 15.1074,27.30882 L11.67012,27.30882 C11.5086078,27.30882 11.3769636,27.1792525 11.37444,27.01776 L11.37444,11.96118 C11.3769636,11.7996875 11.5086078,11.6701003 11.67012,11.67012 L15.06582,11.67012 C15.226568,11.67012 15.35688,11.800432 15.35688,11.96118 Z" id="Path" fill="#1C246B" fill-rule="nonzero"></path>
        <path d="M38.19354,11.96118 L38.19354,14.6223 C38.19354,14.783048 38.063228,14.91336 37.90248,14.91336 L36.00366,14.91336 C35.8403604,14.91336 35.70798,15.0457404 35.70798,15.20904 L35.70798,27.01776 C35.70798,27.178508 35.577668,27.30882 35.41692,27.30882 L32.04894,27.30882 C31.888192,27.30882 31.75788,27.178508 31.75788,27.01776 L31.75788,15.20904 C31.7578997,15.0475278 31.6283125,14.9158836 31.46682,14.91336 L30.35802,14.91336 C30.1965078,14.9133797 30.0648636,14.7837925 30.06234,14.6223 L30.06234,11.96118 C30.0648636,11.7996875 30.1965078,11.6701003 30.35802,11.67012 L31.46682,11.67012 C31.6283125,11.6675964 31.7578997,11.5359522 31.75788,11.37444 L31.75788,10.79232 C31.75788,8.91352 32.25684,7.53984 33.25476,6.67128 C34.20648,5.84892 35.67872,5.41772 37.67148,5.37764328 C37.7494713,5.37644189 37.824696,5.4065596 37.8802836,5.46127871 C37.9358713,5.51599782 37.9671698,5.59073891 37.96716,5.66874 L37.96716,8.41764 C37.967238,8.57739813 37.8404001,8.70832758 37.68072,8.71332 C37.1536739,8.69236594 36.6357999,8.85573313 36.21618,9.17532 C35.8342722,9.61931988 35.650648,10.20024 35.70798,10.78308 L35.70798,11.3652 C35.70798,11.5284996 35.8403604,11.66088 36.00366,11.66088 L37.884,11.66088 C37.9659752,11.6556176 38.0463574,11.6852393 38.1053152,11.7424372 C38.1642731,11.7996352 38.1963165,11.879083 38.19354,11.96118 L38.19354,11.96118 Z" id="Path" fill="#1C246B" fill-rule="nonzero"></path>
        <path d="M43.27554,25.30374 C41.73554,23.8161 40.96554,21.868 40.96554,19.45944 C40.96554,17.05088 41.73554,15.11356 43.27554,13.64748 C46.5416714,10.7084128 51.4993486,10.7084128 54.76548,13.64748 C56.30548,15.11356 57.07548,17.05088 57.07548,19.45944 C57.07548,21.868 56.30548,23.8161 54.76548,25.30374 C53.2164432,26.790064 51.1364632,27.5937683 48.99048,27.5352 C46.861752,27.5969491 44.7992044,26.7916051 43.27554,25.30374 L43.27554,25.30374 Z M49.00434,24.17646 C50.0905222,24.1863882 51.1311499,23.7406443 51.87336,22.94754 C52.67108,22.12826 53.06994,20.97018 53.06994,19.4733 C53.06994,17.97642 52.6757,16.8245 51.88722,16.01754 C51.1468282,15.2212993 50.1054305,14.7735486 49.0182,14.784 C47.9462569,14.7763403 46.9216174,15.22483 46.2,16.01754 C45.43,16.82758 45.045,17.98412 45.045,19.48716 C45.045,20.9902 45.43,22.14828 46.2,22.9614 C46.9202935,23.7456118 47.9395892,24.1872506 49.00434,24.17646 L49.00434,24.17646 Z" id="Shape" fill="#1C246B" fill-rule="nonzero"></path>
        <path d="M62.40234,25.26216 C60.9706421,23.6764289 60.214721,21.5943305 60.29562,19.45944 C60.29562,17.1094 60.99324,15.18594 62.38848,13.68906 C63.746942,12.2066224 65.6823011,11.3872979 67.69224,11.44374 C69.6921642,11.3635317 71.5766968,12.3801874 72.60792,14.09562 L72.60792,11.96118 C72.60792,11.800432 72.738232,11.67012 72.89898,11.67012 L76.26696,11.67012 C76.427708,11.67012 76.55802,11.800432 76.55802,11.96118 L76.55802,27.4197 C76.6384279,29.4382449 75.9291357,31.4086851 74.58066,32.91288 C73.2655,34.33276 71.4175,35.0427 69.03666,35.0427 C66.65582,35.0427 64.76316,34.54836 63.35868,33.55968 C62.0583316,32.6568808 61.205936,31.2412652 61.01634,29.66964 C61.0056644,29.5862719 61.0315485,29.5023588 61.0873325,29.4394911 C61.1431166,29.3766234 61.2233539,29.3409393 61.3074,29.34162 L64.68,29.34162 C64.7999301,29.3422383 64.9076072,29.4152397 64.95258,29.52642 C65.2236401,30.1501707 65.6951592,30.6655898 66.29238,30.99096 C67.0971168,31.4244796 68.0031019,31.6350254 68.91654,31.6008 C69.9014663,31.6270341 70.8543808,31.2498735 71.55456,30.55668 C72.25988,29.85752 72.61408,28.81186 72.61716,27.4197 L72.61716,25.59942 C72.6466594,25.4563812 72.5655864,25.313629 72.4276279,25.2656942 C72.2896693,25.2177595 72.1375484,25.2794867 72.072,25.41 C71.0210888,26.7844678 69.3757201,27.5728021 67.64604,27.53058 C65.6515816,27.5721971 63.7376516,26.7442327 62.40234,25.26216 Z M71.36514,22.86438 C72.2262942,21.9575026 72.6758231,20.7359203 72.60792,19.48716 C72.6761933,18.2397227 72.2265222,17.0194256 71.36514,16.11456 C70.6018985,15.3334015 69.5559092,14.8930133 68.46378,14.8930133 C67.3716508,14.8930133 66.3256615,15.3334015 65.56242,16.11456 C64.7077784,17.0171659 64.2631889,18.2322658 64.3335,19.4733 C64.2663245,20.7247099 64.7155726,21.9488692 65.57628,22.85976 C66.3264884,23.6568399 67.3738087,24.1068865 68.4684,24.1025712 C69.5627827,24.1038651 70.6098264,23.6563249 71.36514,22.86438 L71.36514,22.86438 Z" id="Shape" fill="#1C246B" fill-rule="nonzero"></path>
        <path d="M85.89966,11.96118 L85.89966,14.4375 C86.90066,12.5433 88.32516,11.54846 90.17316,11.4528331 C90.2519421,11.4504777 90.3283706,11.4800346 90.38497,11.5348925 C90.4415694,11.5897504 90.47346,11.6652182 90.47346,11.74404 L90.47346,15.21366 C90.47346,15.3751722 90.3438925,15.5068164 90.1824,15.50934 L89.4894,15.50934 C88.3036,15.50934 87.40886,15.80502 86.80518,16.39638 C86.20458,16.99236 85.88118,18.01338 85.88118,19.45944 L85.88118,27.01776 C85.88118,27.178508 85.750868,27.30882 85.59012,27.30882 L82.236,27.30882 C82.075252,27.30882 81.94494,27.178508 81.94494,27.01776 L81.94494,11.96118 C81.94494,11.800432 82.075252,11.67012 82.236,11.67012 L85.6317,11.67012 C85.7833635,11.6821941 85.9001399,11.8090374 85.89966,11.96118 L85.89966,11.96118 Z" id="Path" fill="#1C246B" fill-rule="nonzero"></path>
        <path d="M101.03478,27.5352 C98.9571625,27.6084786 96.9447247,26.8035035 95.49078,25.3176 C94.04626,23.8392 93.324,21.88648 93.324,19.45944 C93.324,17.0324 94.04472,15.08892 95.48616,13.629 C96.9659028,12.1568949 98.9905504,11.3654417 101.07636,11.44374 C103.168214,11.3647628 105.203546,12.1325928 106.722,13.57356 C108.19116,14.99652 108.9242,16.89226 108.921272,19.26078 C108.923459,19.6869552 108.898769,20.1128499 108.8472,20.5359 C108.82453,20.6792082 108.701229,20.7848949 108.55614,20.78538 L97.72224,20.78538 C97.6372706,20.7845078 97.5561632,20.820811 97.5002075,20.8847603 C97.4442518,20.9487096 97.4190364,21.0339184 97.43118,21.11802 C97.5438702,21.9293244 97.9282193,22.6784794 98.5215,23.24322 C99.2051106,23.8698119 100.108095,24.2017913 101.03478,24.16722 C102.226212,24.2323196 103.359476,23.6471241 103.9962,22.638 C104.051272,22.553332 104.144697,22.5014291 104.24568,22.4994 L107.96478,22.4994 C108.061625,22.5004938 108.151796,22.5489475 108.206155,22.6291052 C108.260515,22.7092629 108.272172,22.8109611 108.23736,22.90134 C107.753071,24.2061531 106.88489,25.3336614 105.74718,26.13534 C104.368228,27.09749 102.715376,27.5884845 101.03478,27.5352 L101.03478,27.5352 Z M103.64508,15.73572 C102.940219,15.116955 102.027816,14.7869722 101.09022,14.81172 C100.168273,14.7808221 99.2709476,15.1125506 98.5908,15.73572 C97.9914442,16.3027165 97.5912059,17.0480995 97.44966,17.86092 C97.4298719,17.947723 97.4508996,18.0388085 97.5067355,18.1081531 C97.5625714,18.1774977 97.6470738,18.2174738 97.7361,18.2166722 L104.46744,18.2166722 C104.55282,18.2161746 104.633822,18.1788055 104.689605,18.1141673 C104.745389,18.049529 104.770508,17.9639324 104.7585,17.8794 C104.667778,17.0509622 104.270647,16.286361 103.64508,15.73572 L103.64508,15.73572 Z" id="Shape" fill="#1C246B" fill-rule="nonzero"></path>
        <path d="M119.86128,11.96118 L119.86128,14.6223 C119.86128,14.783048 119.730968,14.91336 119.57022,14.91336 L117.6714,14.91336 C117.5081,14.91336 117.37572,15.0457404 117.37572,15.20904 L117.37572,27.01776 C117.37572,27.178508 117.245408,27.30882 117.08466,27.30882 L113.71668,27.30882 C113.555932,27.30882 113.42562,27.178508 113.42562,27.01776 L113.42562,15.20904 C113.42564,15.0475278 113.296052,14.9158836 113.13456,14.91336 L112.02576,14.91336 C111.864248,14.9133797 111.732604,14.7837925 111.73008,14.6223 L111.73008,11.96118 C111.732604,11.7996875 111.864248,11.6701003 112.02576,11.67012 L113.13456,11.67012 C113.296052,11.6675964 113.42564,11.5359522 113.42562,11.37444 L113.42562,10.79232 C113.42562,8.91352 113.92458,7.53984 114.9225,6.67128 C115.87422,5.84892 117.34646,5.41772 119.33922,5.37764328 C119.417211,5.37644189 119.492436,5.4065596 119.548024,5.46127871 C119.603611,5.51599782 119.63491,5.59073891 119.6349,5.66874 L119.6349,8.41764 C119.634978,8.57739813 119.50814,8.70832758 119.34846,8.71332 C118.821414,8.69236594 118.30354,8.85573313 117.88392,9.17532 C117.502012,9.61931988 117.318388,10.20024 117.37572,10.78308 L117.37572,11.3652 C117.37572,11.5284996 117.5081,11.66088 117.6714,11.66088 L119.57022,11.66088 C119.649042,11.6608403 119.72451,11.6927706 119.779367,11.74937 C119.834225,11.8059694 119.863782,11.8823979 119.86128,11.96118 L119.86128,11.96118 Z" id="Path" fill="#1C246B" fill-rule="nonzero"></path>
        <path d="M130.41798,11.96118 L130.41798,14.6223 C130.41798,14.783048 130.287668,14.91336 130.12692,14.91336 L128.2281,14.91336 C128.066608,14.9158836 127.93702,15.0475278 127.93704,15.20904 L127.93704,27.01776 C127.934516,27.1792525 127.802872,27.30882 127.64136,27.30882 L124.278,27.30882 C124.116488,27.30882 123.984844,27.1792525 123.98232,27.01776 L123.98232,15.20904 C123.98234,15.0475278 123.852752,14.9158836 123.69126,14.91336 L122.58246,14.91336 C122.421712,14.91336 122.2914,14.783048 122.2914,14.6223 L122.2914,11.96118 C122.2914,11.800432 122.421712,11.67012 122.58246,11.67012 L123.69126,11.67012 C123.852752,11.6675964 123.98234,11.5359522 123.98232,11.37444 L123.98232,10.79232 C123.98232,8.91352 124.48128,7.53984 125.4792,6.67128 C126.47712,5.80272 127.94936,5.37152 129.89592,5.37761493 C129.974342,5.37644508 130.050042,5.40641872 130.106361,5.4610051 C130.16268,5.51559148 130.195004,5.5903177 130.19622,5.66874 L130.19622,8.41764 C130.193945,8.5764359 130.068424,8.7060065 129.90978,8.71332 C129.382525,8.69079631 128.86413,8.85432788 128.44524,9.17532 C128.061388,9.61823442 127.877493,10.2000108 127.93704,10.78308 L127.93704,11.3652 C127.93702,11.5267122 128.066608,11.6583564 128.2281,11.66088 L130.12692,11.66088 C130.205742,11.6608403 130.28121,11.6927706 130.336067,11.74937 C130.390925,11.8059694 130.420482,11.8823979 130.41798,11.96118 L130.41798,11.96118 Z" id="Path" fill="#1C246B" fill-rule="nonzero"></path>
        <path d="M140.91,27.5352 C138.832382,27.6084786 136.819945,26.8035035 135.366,25.3176 C133.9338,23.8392 133.2177,21.88648 133.2177,19.45944 C133.2177,17.0324 133.9338,15.08892 135.366,13.629 C136.843699,12.1566611 138.86707,11.365053 140.95158,11.44374 C143.0401,11.3683251 145.071232,12.1358268 146.58798,13.57356 C148.03866,14.99652 148.764152,16.89226 148.764152,19.26078 C148.766339,19.6869552 148.741649,20.1128499 148.69008,20.5359 C148.667146,20.680946 148.541237,20.7871819 148.3944,20.78538 L137.5836,20.78538 C137.498631,20.7845078 137.417523,20.820811 137.361568,20.8847603 C137.305612,20.9487096 137.280396,21.0339184 137.29254,21.11802 C137.40523,21.9293244 137.789579,22.6784794 138.38286,23.24322 C139.064522,23.8699723 139.966173,24.2020723 140.89152,24.16722 C142.084565,24.2340343 143.220016,23.648623 143.85756,22.638 C143.910559,22.5534377 144.00264,22.5013167 144.10242,22.4994 L147.84,22.4994 C147.936845,22.5004938 148.027016,22.5489475 148.081375,22.6291052 C148.135735,22.7092629 148.147392,22.8109611 148.11258,22.90134 C147.628291,24.2061531 146.76011,25.3336614 145.6224,26.13534 C144.243303,27.0971887 142.590553,27.5881528 140.91,27.5352 Z M143.52492,15.73572 C142.819588,15.1177518 141.907508,14.7878856 140.97006,14.81172 C140.047952,14.779826 139.150262,15.1116894 138.47064,15.73572 C137.869678,16.3014865 137.469133,17.0474401 137.3295,17.86092 C137.309712,17.947723 137.33074,18.0388085 137.386576,18.1081531 C137.442411,18.1774977 137.526914,18.2174738 137.61594,18.2166722 L144.34266,18.2166722 C144.42804,18.2161746 144.509042,18.1788055 144.564825,18.1141673 C144.620609,18.049529 144.645728,17.9639324 144.63372,17.8794 C144.539816,17.0488403 144.137512,16.2838036 143.50644,15.73572 L143.52492,15.73572 Z" id="Shape" fill="#1C246B" fill-rule="nonzero"></path>
        <circle id="Oval" fill="#4696D7" fill-rule="nonzero" cx="3.6267" cy="3.6267" r="3.6267"></circle>
        <path d="M0.461954906,32.34 L0.461954906,34.42824 C0.46076027,34.4976538 0.487469914,34.5646533 0.536124345,34.6141766 C0.584778777,34.6636999 0.651295171,34.69158 0.72072,34.69158 L60.93318,34.69158 C60.1757571,33.9478491 59.5769591,33.0582963 59.17296,32.07666 L0.71148,32.07666 C0.570402818,32.0816775 0.459389974,32.1988578 0.461954906,32.34 Z" id="Path" fill="#4696D7" fill-rule="nonzero"></path>
        <path d="M148.50528,32.08128 L78.0318,32.08128 C77.6107171,32.9927383 77.0477893,33.8316722 76.36398,34.56684 L76.23924,34.6962 L148.50528,34.6962 C148.575502,34.6974656 148.643222,34.6701275 148.692885,34.6204647 C148.742548,34.5708018 148.769886,34.5030824 148.768662,34.43286 L148.768662,32.34 C148.768662,32.2705752 148.74074,32.2040588 148.691217,32.1554043 C148.641693,32.1067499 148.574694,32.0800403 148.50528,32.08128 L148.50528,32.08128 Z" id="Path" fill="#4696D7" fill-rule="nonzero"></path>
        <polygon id="Path" fill="#848484" fill-rule="nonzero" points="4.92492 41.26122 4.92492 42.042 1.44144 42.042 1.44144 44.45364 4.25964 44.45364 4.25964 45.22518 1.44144 45.22518 1.44144 47.7015 4.92492 47.7015 4.92492 48.51 0.462 48.51 0.462 41.26122"></polygon>
        <path d="M7.51212,48.51 L7.51212,43.38642 L8.04804,43.38642 C8.16550772,43.3795613 8.27002795,43.4604165 8.2929,43.57584 L8.3622,44.13486 C8.57525497,43.8930777 8.82845349,43.6898937 9.11064,43.53426 C9.4030431,43.3779727 9.73090415,43.2999864 10.06236,43.30788 C10.3172055,43.3022855 10.5704526,43.3494744 10.80618,43.44648 C11.0134322,43.5351892 11.1969881,43.6712737 11.3421,43.8438 C11.4916969,44.0244449 11.6032675,44.2334433 11.67012,44.45826 C11.7490098,44.7234951 11.7864117,44.9993342 11.781,45.276 L11.781,48.51 L10.8801,48.51 L10.8801,45.276 C10.9079593,44.9475845 10.8178708,44.6199898 10.626,44.352 C10.4183177,44.126478 10.118498,44.008935 9.81288,44.03322 C9.55269081,44.0306379 9.29632239,44.0959242 9.06906,44.22264 C8.82762187,44.3599777 8.61062039,44.536389 8.42688,44.7447 L8.42688,48.51 L7.51212,48.51 Z" id="Path" fill="#848484" fill-rule="nonzero"></path>
        <path d="M16.01754,48.59778 C15.6761833,48.6177732 15.3417559,48.4957072 15.09354,48.26052 C14.8607059,47.9895136 14.7444571,47.6374458 14.77014,47.28108 L14.77014,44.1441 L14.1372,44.1441 C14.086264,44.1451266 14.0367994,44.1269896 13.9986,44.09328 C13.9583621,44.0551519 13.9379143,44.0006245 13.94316,43.94544 L13.94316,43.58508 L14.784,43.47882 L14.9919,41.89416 C14.9979472,41.8462136 15.020878,41.8019899 15.05658,41.76942 C15.0970871,41.7370672 15.148023,41.7206362 15.1998,41.72322 L15.6618,41.72322 L15.6618,43.48806 L17.13096,43.48806 L17.13096,44.1441 L15.65718,44.1441 L15.65718,47.22102 C15.6425162,47.3972249 15.6990954,47.5719548 15.81426,47.70612 C15.9219951,47.8093854 16.0670808,47.864418 16.2162,47.85858 C16.3009441,47.8620546 16.3855833,47.8495155 16.46568,47.82162 C16.5278367,47.802338 16.5869451,47.7743393 16.64124,47.73846 C16.6869766,47.7150384 16.7303042,47.687185 16.7706,47.6553 C16.7990921,47.6345978 16.8325755,47.6218422 16.86762,47.61834 C16.9219002,47.6232025 16.9694572,47.6566685 16.99236,47.70612 L17.2557,48.13578 C17.0923628,48.2860061 16.9007614,48.4022234 16.69206,48.47766 C16.4765295,48.5588739 16.2478567,48.5995964 16.01754,48.59778 Z" id="Path" fill="#848484" fill-rule="nonzero"></path>
        <path d="M19.55646,48.51 L19.55646,43.38642 L20.0739,43.38642 C20.1445885,43.3808668 20.2149619,43.4005059 20.27256,43.44186 C20.3173634,43.4973437 20.3446968,43.5648734 20.3511,43.6359 L20.41116,44.43516 C20.5612648,44.1101316 20.7841569,43.8240077 21.06258,43.59894 C21.4346115,43.3262528 21.9086437,43.2331394 22.35618,43.34484 C22.4676163,43.3760176 22.5747095,43.4210278 22.67496,43.47882 L22.55946,44.15334 C22.5456753,44.2283591 22.4785716,44.2816473 22.40238,44.27808 C22.3281242,44.2734247 22.2549591,44.2578577 22.18524,44.23188 C22.0512637,44.195993 21.9126596,44.1804195 21.77406,44.18568 C21.4859943,44.1751909 21.2043482,44.2723671 20.98404,44.45826 C20.7466955,44.6856948 20.5662629,44.9658401 20.45736,45.276 L20.45736,48.51 L19.55646,48.51 Z" id="Path" fill="#848484" fill-rule="nonzero"></path>
        <path d="M26.98542,43.30788 C27.2758448,43.3048069 27.5642443,43.3565307 27.8355,43.46034 C28.0900044,43.565789 28.3197312,43.7231362 28.51002,43.92234 C28.713657,44.1268825 28.8711817,44.3726209 28.97202,44.64306 C29.0722903,44.9515456 29.1176382,45.2752364 29.106,45.5994 C29.1139558,45.6967951 29.0997399,45.7947269 29.06442,45.88584 C29.0218341,45.9377624 28.9554291,45.9639749 28.88886,45.95514 L25.4793,45.95514 C25.4810786,46.2421031 25.5262494,46.5271468 25.61328,46.8006 C25.6822824,47.0212867 25.7954571,47.2256299 25.94592,47.4012 C26.0848836,47.5593257 26.2589241,47.6827362 26.45412,47.76156 C26.6630526,47.8433736 26.8857939,47.8841572 27.11016,47.88168 C27.3085689,47.88502 27.5063545,47.8585448 27.6969,47.80314 C27.8428641,47.7574522 27.9849871,47.7002941 28.12194,47.6322 C28.2240466,47.5815877 28.3228085,47.5244909 28.41762,47.46126 C28.4769702,47.417069 28.5472553,47.3899134 28.6209,47.38272 C28.6891826,47.3806428 28.7537427,47.4137953 28.79184,47.4705 L29.04594,47.79852 C28.9327623,47.9369991 28.7987175,48.057016 28.64862,48.15426 C28.4909233,48.2523901 28.3237633,48.3344223 28.14966,48.39912 C27.9709989,48.4630341 27.7870169,48.5109622 27.59988,48.54234 C27.4136356,48.5735798 27.2250856,48.5890347 27.03624,48.58854 C26.7012023,48.5921241 26.3686277,48.5309429 26.0568,48.40836 C25.7623724,48.2922492 25.4973079,48.112384 25.28064,47.88168 C25.053815,47.6350952 24.8807508,47.3440327 24.77244,47.02698 C24.6447303,46.6475392 24.5822457,46.2491998 24.58764,45.84888 C24.5849915,45.5076202 24.6412571,45.1684631 24.75396,44.84634 C24.8536466,44.5492387 25.010606,44.2745599 25.21596,44.03784 C25.4256101,43.8072258 25.6824479,43.6244455 25.96902,43.50192 C26.2904559,43.3666529 26.6367591,43.3005405 26.98542,43.30788 L26.98542,43.30788 Z M26.98542,43.97316 C26.6067397,43.9523227 26.236062,44.08757 25.95978,44.34738 C25.6945919,44.6366101 25.5322036,45.0052316 25.49778,45.39612 L28.26978,45.39612 C28.2838852,45.2003461 28.2651467,45.0035918 28.21434,44.814 C28.1659845,44.6436014 28.0808212,44.4858915 27.96486,44.352 C27.8516774,44.2238857 27.7111571,44.1228373 27.55368,44.05632 C27.3781152,43.990985 27.1909338,43.9626719 27.0039,43.97316 L26.98542,43.97316 Z" id="Shape" fill="#848484" fill-rule="nonzero"></path>
        <path d="M31.5777,50.25636 L31.5777,43.38642 L32.11362,43.38642 C32.2317339,43.3774398 32.337499,43.4592581 32.35848,43.57584 L32.43702,44.18568 C32.6441979,43.9255004 32.8980017,43.7061638 33.18546,43.53888 C33.4835368,43.3742571 33.8198424,43.2913761 34.16028,43.29864 C34.4371761,43.2946514 34.7115792,43.3514244 34.96416,43.46496 C35.2046796,43.5818018 35.4137735,43.7544626 35.574,43.96854 C35.7591583,44.2218327 35.8925993,44.5091232 35.9667,44.814 C36.0602665,45.1838916 36.1053046,45.5643858 36.10068,45.9459 C36.1035375,46.3027175 36.0521302,46.6578957 35.94822,46.99926 C35.8583418,47.3060528 35.7109661,47.592965 35.51394,47.84472 C35.1228194,48.3421163 34.5202856,48.6262658 33.8877,48.61164 C33.6083793,48.6200497 33.3306704,48.5664014 33.07458,48.45456 C32.8462776,48.3431595 32.6433945,48.1858857 32.4786,47.99256 L32.4786,50.26098 L31.5777,50.25636 Z M33.8877,44.0286 C33.6155716,44.0216347 33.3468591,44.0904123 33.11154,44.22726 C32.8673024,44.3835871 32.6529555,44.5822883 32.4786,44.814 L32.4786,47.29494 C32.6168142,47.4939436 32.8047817,47.6532381 33.02376,47.75694 C33.2311469,47.8510428 33.4566993,47.8983615 33.68442,47.89554 C34.1135065,47.9185646 34.5258509,47.7262528 34.78398,47.38272 C35.0681379,46.9527214 35.2043802,46.4418127 35.17206,45.92742 C35.1763995,45.6367589 35.1453717,45.346649 35.07966,45.06348 C35.0353389,44.8527832 34.9489102,44.6532115 34.82556,44.47674 C34.7229554,44.3278783 34.5804374,44.2109815 34.41438,44.13948 C34.2412536,44.0633269 34.0537096,44.0255029 33.8646,44.0286 L33.8877,44.0286 Z" id="Shape" fill="#848484" fill-rule="nonzero"></path>
        <path d="M38.48922,48.51 L38.48922,43.38642 L39.00204,43.38642 C39.0742351,43.3801575 39.1463006,43.3998117 39.20532,43.44186 C39.2501234,43.4973437 39.2774568,43.5648734 39.28386,43.6359 L39.34392,44.43516 C39.4940248,44.1101316 39.7169169,43.8240077 39.99534,43.59894 C40.2583812,43.3931807 40.5855911,43.2868375 40.91934,43.29864 C41.0501975,43.2963505 41.1807573,43.3118933 41.30742,43.34484 C41.4188563,43.3760176 41.5259495,43.4210278 41.6262,43.47882 L41.5107,44.15334 C41.4969153,44.2283591 41.4298116,44.2816473 41.35362,44.27808 C41.2792981,44.2739133 41.2060605,44.2583308 41.13648,44.23188 C41.0025037,44.195993 40.8638996,44.1804195 40.7253,44.18568 C40.4372343,44.1751909 40.1555882,44.2723671 39.93528,44.45826 C39.6896975,44.6823937 39.5025578,44.9631032 39.39012,45.276 L39.39012,48.51 L38.48922,48.51 Z" id="Path" fill="#848484" fill-rule="nonzero"></path>
        <path d="M45.91818,43.30788 C46.2086048,43.3048069 46.4970043,43.3565307 46.76826,43.46034 C47.0227644,43.565789 47.2524912,43.7231362 47.44278,43.92234 C47.646417,44.1268825 47.8039417,44.3726209 47.90478,44.64306 C48.0145117,44.9545219 48.0677076,45.2830852 48.06186,45.61326 C48.0715051,45.7111292 48.0555863,45.8098262 48.01566,45.8997 C47.9745353,45.9508565 47.9098583,45.977077 47.84472,45.969 L44.41206,45.969 C44.4138386,46.2559631 44.4590094,46.5410068 44.54604,46.81446 C44.6131765,47.0359405 44.7265543,47.2406505 44.87868,47.41506 C45.0166922,47.5742382 45.1910056,47.6978423 45.38688,47.77542 C45.5958126,47.8572336 45.8185539,47.8980172 46.04292,47.89554 C46.2413087,47.8985344 46.4390432,47.872066 46.62966,47.817 C46.7744503,47.772203 46.9151107,47.7150114 47.05008,47.64606 C47.152723,47.5964542 47.2515531,47.539318 47.34576,47.47512 C47.4067606,47.4307658 47.4785697,47.4036379 47.55366,47.39658 C47.621746,47.3953614 47.6859195,47.4283153 47.7246,47.48436 L47.9787,47.81238 C47.8649236,47.9519968 47.7291662,48.0721499 47.57676,48.16812 C47.4200417,48.2680027 47.252691,48.3501285 47.0778,48.41298 C46.8993101,48.4774474 46.7152775,48.5253887 46.52802,48.5562 C46.3433297,48.5874439 46.1563137,48.6028998 45.969,48.6024 C45.6339223,48.6064523 45.3012585,48.5452547 44.98956,48.42222 C44.6951324,48.3061092 44.4300679,48.126244 44.2134,47.89554 C43.986575,47.6489552 43.8135108,47.3578927 43.7052,47.04084 C43.5752446,46.6619525 43.5126984,46.2632207 43.5204,45.86274 C43.5177515,45.5214802 43.5740171,45.1823231 43.68672,44.8602 C43.7880017,44.5638165 43.9447942,44.2894298 44.14872,44.0517 C44.3600916,43.8209803 44.6184525,43.6382372 44.9064,43.51578 C45.2252544,43.3759968 45.570042,43.30515 45.91818,43.30788 L45.91818,43.30788 Z M45.91818,43.97316 C45.5394997,43.9523227 45.168822,44.08757 44.89254,44.34738 C44.6273519,44.6366101 44.4649636,45.0052316 44.43054,45.39612 L47.20254,45.39612 C47.2056479,45.2000746 47.1759795,45.0048876 47.11476,44.81862 C47.0647584,44.6479352 46.9780321,44.4902511 46.86066,44.35662 C46.7500216,44.2277371 46.6108015,44.1264861 46.4541,44.06094 C46.2887845,43.9989927 46.1131564,43.9691987 45.93666,43.97316 L45.91818,43.97316 Z" id="Shape" fill="#848484" fill-rule="nonzero"></path>
        <path d="M50.51046,48.51 L50.51046,43.38642 L51.04638,43.38642 C51.1644939,43.3774398 51.270259,43.4592581 51.29124,43.57584 L51.36054,44.13486 C51.573595,43.8930777 51.8267935,43.6898937 52.10898,43.53426 C52.402829,43.3773935 52.7323299,43.2993957 53.06532,43.30788 C53.3186156,43.3029228 53.5702252,43.3500996 53.80452,43.44648 C54.0128453,43.5333099 54.1968144,43.6697008 54.34044,43.8438 C54.4900369,44.0244449 54.6016075,44.2334433 54.66846,44.45826 C54.7450224,44.7160891 54.7823999,44.9839608 54.77934,45.2529 L54.77934,48.51 L53.87844,48.51 L53.87844,45.276 C53.9036372,44.9464534 53.8102418,44.61875 53.6151,44.352 C53.4066272,44.127636 53.1073909,44.0103217 52.80198,44.03322 C52.5402544,44.0300459 52.2822455,44.0953444 52.05354,44.22264 C51.8129441,44.3612056 51.5961304,44.5374642 51.41136,44.7447 L51.41136,48.51 L50.51046,48.51 Z" id="Path" fill="#848484" fill-rule="nonzero"></path>
        <path d="M61.07178,48.51 C60.9536661,48.5189802 60.847901,48.4371619 60.82692,48.32058 L60.74838,47.7015 C60.5381612,47.9579889 60.2829753,48.1740359 59.99532,48.33906 C59.6989298,48.503717 59.364097,48.586628 59.02512,48.5793 C58.7497202,48.5832134 58.4768377,48.5264286 58.22586,48.41298 C57.9851909,48.296446 57.7748525,48.1256448 57.6114,47.91402 C57.4288312,47.6683203 57.2969157,47.3887852 57.22332,47.09166 C57.125776,46.7240083 57.079141,46.3447107 57.08472,45.96438 C57.081823,45.6060445 57.1332261,45.2493377 57.23718,44.9064 C57.3346707,44.5957926 57.4915775,44.307084 57.69918,44.05632 C57.8859703,43.8198135 58.1225798,43.6273711 58.39218,43.49268 C58.6808373,43.3558962 58.9967683,43.2863913 59.31618,43.2894 C59.5925164,43.2809697 59.8672232,43.3346481 60.12006,43.44648 C60.3486116,43.559617 60.5526835,43.7165954 60.72066,43.90848 L60.72066,41.05794 L61.62156,41.05794 L61.62156,48.51 L61.07178,48.51 Z M59.32542,47.84934 C59.5960165,47.8556889 59.8630791,47.7869243 60.09696,47.65068 C60.3334179,47.4984346 60.5400875,47.3042904 60.7068,47.0778 L60.7068,44.6061 C60.5670351,44.4085111 60.3794771,44.2495636 60.16164,44.1441 C59.9548282,44.0537609 59.7312728,44.0081052 59.5056,44.01012 C59.075235,43.9871835 58.6615419,44.1793171 58.40142,44.52294 C58.118533,44.9550619 57.9839372,45.4674991 58.01796,45.98286 C58.0132361,46.2699894 58.0411348,46.5567266 58.10112,46.83756 C58.1484493,47.0487208 58.2346124,47.2492459 58.35522,47.42892 C58.4593575,47.5752441 58.6015534,47.6902791 58.7664,47.76156 C58.943557,47.8338561 59.1342624,47.8669537 59.32542,47.85858 L59.32542,47.84934 Z" id="Shape" fill="#848484" fill-rule="nonzero"></path>
        <path d="M64.43976,48.51 L64.43976,43.38642 L64.9572,43.38642 C65.0216726,43.3799806 65.0864988,43.3945665 65.142,43.428 C65.1868034,43.4834837 65.2141368,43.5510134 65.22054,43.62204 L65.2806,44.4213 C65.4307048,44.0962716 65.6535969,43.8101477 65.93202,43.58508 C66.3040515,43.3123928 66.7780837,43.2192794 67.22562,43.33098 C67.3370563,43.3621576 67.4441495,43.4071678 67.5444,43.46496 L67.452,44.15334 C67.4382153,44.2283591 67.3711116,44.2816473 67.29492,44.27808 C67.2206642,44.2734247 67.1474991,44.2578577 67.07778,44.23188 C66.9438037,44.195993 66.8051996,44.1804195 66.6666,44.18568 C66.3785343,44.1751909 66.0968882,44.2723671 65.87658,44.45826 C65.6358829,44.6847048 65.4522319,44.9649308 65.34066,45.276 L65.34066,48.51 L64.43976,48.51 Z" id="Path" fill="#848484" fill-rule="nonzero"></path>
        <path d="M71.86872,43.30788 C72.1591448,43.3048069 72.4475443,43.3565307 72.7188,43.46034 C72.9733044,43.565789 73.2030312,43.7231362 73.39332,43.92234 C73.596957,44.1268825 73.7544817,44.3726209 73.85532,44.64306 C73.9650517,44.9545219 74.0182476,45.2830852 74.0124,45.61326 C74.0220451,45.7111292 74.0061263,45.8098262 73.9662,45.8997 C73.9250753,45.9508565 73.8603983,45.977077 73.79526,45.969 L70.3626,45.969 C70.3643786,46.2559631 70.4095494,46.5410068 70.49658,46.81446 C70.5655824,47.0351467 70.6787571,47.2394899 70.82922,47.41506 C70.9672322,47.5742382 71.1415456,47.6978423 71.33742,47.77542 C71.5463526,47.8572336 71.7690939,47.8980172 71.99346,47.89554 C72.1918487,47.8985344 72.3895832,47.872066 72.5802,47.817 C72.7249903,47.772203 72.8656507,47.7150114 73.00062,47.64606 C73.1041775,47.5953805 73.2044723,47.5382896 73.30092,47.47512 C73.3602702,47.430929 73.4305553,47.4037734 73.5042,47.39658 C73.5724826,47.3945028 73.6370427,47.4276553 73.67514,47.48436 L73.92924,47.81238 C73.8160623,47.9508591 73.6820175,48.070876 73.53192,48.16812 C73.3730886,48.2671327 73.204304,48.3492022 73.02834,48.41298 C72.8512563,48.4768872 72.6688086,48.5248184 72.48318,48.5562 C72.2969356,48.5874398 72.1083856,48.6028947 71.91954,48.6024 C71.5844623,48.6064523 71.2517985,48.5452547 70.9401,48.42222 C70.6456724,48.3061092 70.3806079,48.126244 70.16394,47.89554 C69.937115,47.6489552 69.7640508,47.3578927 69.65574,47.04084 C69.5280303,46.6613992 69.4655457,46.2630598 69.47094,45.86274 C69.4682915,45.5214802 69.5245571,45.1823231 69.63726,44.8602 C69.7369466,44.5630987 69.893906,44.2884199 70.09926,44.0517 C70.3089101,43.8210858 70.5657479,43.6383055 70.85232,43.51578 C71.1727249,43.3757587 71.519068,43.3049158 71.86872,43.30788 L71.86872,43.30788 Z M71.86872,43.97316 C71.4900397,43.9523227 71.119362,44.08757 70.84308,44.34738 C70.5778919,44.6366101 70.4155036,45.0052316 70.38108,45.39612 L73.15308,45.39612 C73.1561879,45.2000746 73.1265195,45.0048876 73.0653,44.81862 C73.0169445,44.6482214 72.9317812,44.4905115 72.81582,44.35662 C72.7026374,44.2285057 72.5621171,44.1274573 72.40464,44.06094 C72.2395069,43.9983186 72.0637465,43.9685021 71.8872,43.97316 L71.86872,43.97316 Z" id="Shape" fill="#848484" fill-rule="nonzero"></path>
        <path d="M81.774,43.30788 C82.0644248,43.3048069 82.3528243,43.3565307 82.62408,43.46034 C82.8785844,43.565789 83.1083112,43.7231362 83.2986,43.92234 C83.502237,44.1268825 83.6597617,44.3726209 83.7606,44.64306 C83.8703317,44.9545219 83.9235276,45.2830852 83.91768,45.61326 C83.9256358,45.7106551 83.9114199,45.8085869 83.8761,45.8997 C83.8335141,45.9516224 83.7671091,45.9778349 83.70054,45.969 L80.28636,45.969 C80.2881386,46.2559631 80.3333094,46.5410068 80.42034,46.81446 C80.4893424,47.0351467 80.6025171,47.2394899 80.75298,47.41506 C80.8909922,47.5742382 81.0653056,47.6978423 81.26118,47.77542 C81.4701126,47.8572336 81.6928539,47.8980172 81.91722,47.89554 C82.1156289,47.89888 82.3134145,47.8724048 82.50396,47.817 C82.6499241,47.7713122 82.7920471,47.7141541 82.929,47.64606 C83.0311066,47.5954477 83.1298685,47.5383509 83.22468,47.47512 C83.2840302,47.430929 83.3543153,47.4037734 83.42796,47.39658 C83.4962426,47.3945028 83.5608027,47.4276553 83.5989,47.48436 L83.853,47.81238 C83.7398223,47.9508591 83.6057775,48.070876 83.45568,48.16812 C83.2979833,48.2662501 83.1308233,48.3482823 82.95672,48.41298 C82.7780589,48.4768941 82.5940769,48.5248222 82.40694,48.5562 C82.2206956,48.5874398 82.0321456,48.6028947 81.8433,48.6024 C81.5082223,48.6064523 81.1755585,48.5452547 80.86386,48.42222 C80.5694324,48.3061092 80.3043679,48.126244 80.0877,47.89554 C79.860875,47.6489552 79.6878108,47.3578927 79.5795,47.04084 C79.4517903,46.6613992 79.3893057,46.2630598 79.3947,45.86274 C79.3920515,45.5214802 79.4483171,45.1823231 79.56102,44.8602 C79.6607066,44.5630987 79.817666,44.2884199 80.02302,44.0517 C80.2326701,43.8210858 80.4895079,43.6383055 80.77608,43.51578 C81.0907851,43.3782827 81.4305693,43.3074943 81.774,43.30788 Z M81.774,43.97316 C81.3953197,43.9523227 81.024642,44.08757 80.74836,44.34738 C80.4831719,44.6366101 80.3207836,45.0052316 80.28636,45.39612 L83.05836,45.39612 C83.0614679,45.2000746 83.0317995,45.0048876 82.97058,44.81862 C82.9222245,44.6482214 82.8370612,44.4905115 82.7211,44.35662 C82.6079174,44.2285057 82.4673971,44.1274573 82.30992,44.06094 C82.1390103,43.9959027 81.9567276,43.9660461 81.774,43.97316 L81.774,43.97316 Z" id="Shape" fill="#848484" fill-rule="nonzero"></path>
        <path d="M86.35704,48.51 L86.35704,43.38642 L86.89296,43.38642 C87.0110739,43.3774398 87.116839,43.4592581 87.13782,43.57584 L87.20712,44.13486 C87.4221744,43.8951809 87.6749937,43.6923012 87.95556,43.53426 C88.2497792,43.378375 88.5790191,43.300439 88.9119,43.30788 C89.1651956,43.3029228 89.4168052,43.3500996 89.6511,43.44648 C89.8597635,43.5350169 90.044861,43.6710714 90.19164,43.8438 C90.3398009,44.0246974 90.4498101,44.2337147 90.51504,44.45826 C90.5916024,44.7160891 90.6289799,44.9839608 90.62592,45.2529 L90.62592,48.51 L89.72502,48.51 L89.72502,45.276 C89.7502172,44.9464534 89.6568218,44.61875 89.46168,44.352 C89.2535999,44.1270599 88.9540743,44.0096323 88.64856,44.03322 C88.3868344,44.0300459 88.1288255,44.0953444 87.90012,44.22264 C87.6595241,44.3612056 87.4427104,44.5374642 87.25794,44.7447 L87.25794,48.51 L86.35704,48.51 Z" id="Path" fill="#848484" fill-rule="nonzero"></path>
        <path d="M100.07844,44.30118 C100.055592,44.3333782 100.027478,44.3614925 99.99528,44.38434 C99.9621423,44.4091102 99.9209623,44.4206406 99.87978,44.41668 C99.8203311,44.4130514 99.7636317,44.3903717 99.71808,44.352 C99.6450413,44.3019569 99.5694818,44.255696 99.4917,44.2134 C99.3854646,44.1567592 99.2740831,44.1103503 99.15906,44.0748 C99.0090799,44.0306323 98.8534032,44.0088376 98.69706,44.01012 C98.4697119,44.0061471 98.2442389,44.0518724 98.0364,44.1441 C97.8547145,44.2363756 97.696651,44.369149 97.5744,44.53218 C97.4384704,44.7161987 97.3396163,44.9248908 97.28334,45.14664 C97.2120252,45.4085267 97.1778116,45.6791249 97.1817,45.95052 C97.1783723,46.229787 97.2141391,46.5081459 97.28796,46.7775 C97.3482474,46.9980729 97.4501799,47.2050742 97.58826,47.38734 C97.710239,47.5471134 97.8686396,47.6754179 98.05026,47.76156 C98.2458631,47.8508006 98.459,47.8950068 98.67396,47.89092 C98.8572741,47.8953141 99.0400166,47.8687618 99.2145,47.81238 C99.3399282,47.7689025 99.4594335,47.7099258 99.57024,47.63682 C99.6508427,47.5831983 99.7279948,47.5245627 99.80124,47.46126 C99.8499284,47.4143054 99.9138808,47.3864287 99.98142,47.38272 C100.051318,47.3790082 100.118011,47.4123547 100.15698,47.4705 L100.41108,47.79852 C100.190416,48.0692089 99.9018484,48.2764674 99.57486,48.39912 C99.2369594,48.5271829 98.8782229,48.5914108 98.51688,48.58854 C98.209175,48.592842 97.9039426,48.5330542 97.6206,48.41298 C97.3480139,48.2951458 97.1038348,48.1202821 96.9045,47.90016 C96.6991506,47.6547707 96.542363,47.3725529 96.4425,47.06856 C96.3221145,46.7083706 96.2642989,46.3302256 96.27156,45.95052 C96.2675458,45.5917657 96.320567,45.2346526 96.42864,44.89254 C96.5245195,44.5854311 96.6816873,44.3009575 96.89064,44.05632 C97.0978986,43.8176004 97.3570873,43.6295305 97.64832,43.50654 C97.9738159,43.3681713 98.3249723,43.3004596 98.67858,43.30788 C99.0058498,43.3023801 99.3309424,43.362059 99.63492,43.48344 C99.9077189,43.5998307 100.155551,43.7676666 100.36488,43.97778 L100.07844,44.30118 Z" id="Path" fill="#848484" fill-rule="nonzero"></path>
        <path d="M104.70306,43.30788 C105.050689,43.3023753 105.396017,43.3651623 105.71946,43.49268 C106.011078,43.613337 106.272819,43.7962404 106.48638,44.0286 C106.70635,44.2682283 106.873232,44.5516119 106.9761,44.8602 C107.197812,45.5717491 107.197812,46.3339109 106.9761,47.04546 C106.870792,47.3529319 106.704191,47.6358393 106.48638,47.87706 C106.273598,48.1080573 106.011453,48.2880847 105.71946,48.40374 C105.06426,48.65014 104.34186,48.65014 103.68666,48.40374 C103.39389,48.2870326 103.130455,48.1072032 102.91512,47.87706 C102.69515,47.6374317 102.528268,47.3540481 102.4254,47.04546 C102.191336,46.335843 102.191336,45.569817 102.4254,44.8602 C102.526702,44.5509017 102.693769,44.267203 102.91512,44.0286 C103.131265,43.7971288 103.394297,43.6144239 103.68666,43.49268 C104.00997,43.3646957 104.355392,43.3018917 104.70306,43.30788 L104.70306,43.30788 Z M104.70306,47.8863 C105.141381,47.9155941 105.5656,47.7251286 105.83496,47.3781 C106.340379,46.4951304 106.340379,45.4105296 105.83496,44.52756 C105.567657,44.1774626 105.14252,43.9848495 104.70306,44.01474 C104.472648,44.0098636 104.243972,44.0555988 104.03316,44.14872 C103.850029,44.2345795 103.691229,44.364796 103.57116,44.52756 C103.435846,44.7096317 103.338443,44.9170052 103.28472,45.1374 C103.161484,45.6755955 103.161484,46.2346845 103.28472,46.77288 C103.338426,46.9918661 103.435859,47.1977313 103.57116,47.3781 C103.692747,47.5382535 103.851249,47.66664 104.03316,47.75232 C104.243972,47.8454412 104.472648,47.8911764 104.70306,47.8863 Z" id="Shape" fill="#848484" fill-rule="nonzero"></path>
        <path d="M109.57254,48.51 L109.57254,43.38642 L110.11308,43.38642 C110.229487,43.3798854 110.332517,43.4611205 110.35332,43.57584 L110.42724,44.13486 C110.639662,43.8942775 110.891126,43.6912317 111.17106,43.53426 C111.465279,43.378375 111.794519,43.300439 112.1274,43.30788 C112.382181,43.3030745 112.635269,43.3502338 112.87122,43.44648 C113.078472,43.5351892 113.262028,43.6712737 113.40714,43.8438 C113.555301,44.0246974 113.66531,44.2337147 113.73054,44.45826 C113.810914,44.7153441 113.849901,44.9835725 113.84604,45.2529 L113.84604,48.51 L112.92204,48.51 L112.92204,45.276 C112.947237,44.9464534 112.853842,44.61875 112.6587,44.352 C112.451018,44.126478 112.151198,44.008935 111.84558,44.03322 C111.583854,44.0300459 111.325845,44.0953444 111.09714,44.22264 C110.857151,44.3601166 110.641693,44.5365427 110.45958,44.7447 L110.45958,48.51 L109.57254,48.51 Z" id="Path" fill="#848484" fill-rule="nonzero"></path>
        <path d="M116.7243,48.51 L116.7243,44.15796 L116.16066,44.09328 C116.097278,44.0797055 116.037462,44.0529457 115.9851,44.01474 C115.938235,43.9764558 115.912482,43.9180837 115.9158,43.85766 L115.9158,43.48806 L116.7243,43.48806 L116.7243,42.99372 C116.719465,42.7281371 116.761697,42.4637961 116.84904,42.21294 C116.92455,41.9970211 117.045909,41.8000088 117.20478,41.63544 C117.3608,41.4759743 117.550106,41.3529253 117.75918,41.27508 C117.993582,41.1925796 118.240661,41.1519211 118.48914,41.15496 C118.705924,41.1519223 118.921607,41.1863066 119.1267,41.2566 L119.1267,41.7186 C119.130558,41.7746627 119.093505,41.8253657 119.03892,41.83872 C118.963711,41.8474286 118.887749,41.8474286 118.81254,41.83872 L118.65546,41.83872 C118.51163,41.8382156 118.368479,41.8584436 118.23042,41.89878 C118.107024,41.9383834 117.994664,42.0064329 117.9024,42.09744 C117.806607,42.2001942 117.735505,42.3234378 117.6945,42.4578 C117.640252,42.6358482 117.615287,42.8215263 117.62058,43.00758 L117.62058,43.46958 L119.1036,43.46958 L119.1036,44.12562 L117.65292,44.12562 L117.65292,48.51 L116.7243,48.51 Z" id="Path" fill="#848484" fill-rule="nonzero"></path>
        <path d="M122.45772,41.77866 C122.467879,41.8674108 122.458416,41.9573097 122.43,42.042 C122.393565,42.1170581 122.345197,42.1857096 122.28678,42.24528 C122.22914,42.3048107 122.159973,42.3519703 122.0835,42.38388 C122.004492,42.4170646 121.919713,42.4343344 121.83402,42.4347 C121.660569,42.4375396 121.493555,42.3690637 121.37202,42.24528 C121.313499,42.1867962 121.266484,42.1178407 121.23342,42.042 C121.199747,41.9647669 121.182443,41.8813943 121.182599,41.79714 C121.182966,41.7114468 121.200235,41.6266678 121.23342,41.54766 C121.263051,41.4686408 121.310476,41.3975038 121.37202,41.33976 C121.42966,41.2802293 121.498827,41.2330697 121.5753,41.20116 C121.651825,41.1653128 121.73569,41.147907 121.82016,41.15034 C121.906079,41.1483523 121.991345,41.1657212 122.06964,41.20116 C122.224236,41.2695146 122.347785,41.3930639 122.41614,41.54766 C122.443872,41.6215073 122.457961,41.6997776 122.45772,41.77866 Z M122.25444,43.38642 L122.25444,48.51 L121.35354,48.51 L121.35354,43.38642 L122.25444,43.38642 Z" id="Shape" fill="#848484" fill-rule="nonzero"></path>
        <path d="M128.93034,48.51 L128.53302,48.51 C128.459886,48.5131723 128.387045,48.4989208 128.3205,48.46842 C128.258632,48.4328884 128.218722,48.368684 128.21424,48.29748 L128.1126,47.83548 C127.97862,47.9556 127.84464,48.06648 127.71528,48.1635 C127.588894,48.2556504 127.454355,48.3360644 127.31334,48.40374 C127.165669,48.4720397 127.010658,48.5231933 126.85134,48.5562 C126.676221,48.5892596 126.498237,48.6047365 126.32004,48.6024 C126.130502,48.6040293 125.941877,48.5759695 125.76102,48.51924 C125.590901,48.4701985 125.433332,48.3851112 125.29902,48.26976 C125.166165,48.1522702 125.06053,48.0072201 124.98948,47.84472 C124.911647,47.6526486 124.873914,47.4466894 124.8786,47.2395 C124.879315,47.0323869 124.936843,46.82944 125.04492,46.65276 C125.178754,46.4428217 125.362988,46.2697052 125.58084,46.14918 C125.8871,45.9846023 126.215383,45.8648025 126.55566,45.79344 C127.041622,45.6910083 127.537473,45.6429727 128.03406,45.65022 L128.03406,45.24828 C128.060587,44.9192998 127.968845,44.5916512 127.77534,44.32428 C127.589362,44.1230455 127.323662,44.0147344 127.05,44.0286 C126.861785,44.0241119 126.674215,44.0522475 126.4956,44.11176 C126.360435,44.1603452 126.230435,44.2222497 126.10752,44.29656 L125.82108,44.48598 C125.753216,44.5377458 125.670782,44.5668402 125.58546,44.56914 C125.529056,44.5691543 125.474086,44.5513699 125.42838,44.51832 C125.382568,44.4894218 125.344505,44.4497733 125.3175,44.40282 L125.1558,44.11176 C125.422587,43.8520302 125.736099,43.6451124 126.0798,43.50192 C126.424399,43.3620124 126.793628,43.2928801 127.1655,43.29864 C127.427774,43.2938732 127.688405,43.3409752 127.93242,43.43724 C128.14697,43.5270941 128.339325,43.6626889 128.49606,43.83456 C128.651041,44.0137056 128.767423,44.2228795 128.83794,44.44902 C128.918368,44.7045055 128.957362,44.9712227 128.95344,45.23904 L128.93034,48.51 Z M126.588,47.96946 C126.734284,47.9701667 126.880112,47.9531017 127.02228,47.91864 C127.152183,47.8878003 127.277848,47.8412578 127.3965,47.78004 C127.514649,47.7212791 127.626165,47.6500328 127.72914,47.56752 C127.841669,47.4792848 127.946744,47.3819361 128.0433,47.27646 L128.0433,46.2 C127.687516,46.1960684 127.33204,46.2223427 126.9807,46.27854 C126.737818,46.3202047 126.500604,46.3899733 126.27384,46.48644 C126.117202,46.5496921 125.980113,46.6533058 125.87652,46.78674 C125.794198,46.8992736 125.750444,47.0353963 125.75178,47.17482 C125.749575,47.2950133 125.771571,47.4144219 125.81646,47.52594 C125.856378,47.6193146 125.918177,47.7017136 125.99664,47.76618 C126.072644,47.8319419 126.162742,47.8793617 126.25998,47.90478 C126.365848,47.9412383 126.476217,47.9630012 126.588,47.96946 L126.588,47.96946 Z" id="Shape" fill="#848484" fill-rule="nonzero"></path>
        <path d="M131.61456,48.51 L131.61456,43.38642 L132.1551,43.38642 C132.271507,43.3798854 132.374537,43.4611205 132.39534,43.57584 L132.46464,44.13486 C132.679694,43.8951809 132.932514,43.6923012 133.21308,43.53426 C133.507299,43.378375 133.836539,43.300439 134.16942,43.30788 C134.422716,43.3029228 134.674325,43.3500996 134.90862,43.44648 C135.117891,43.5339473 135.303221,43.6701728 135.44916,43.8438 C135.597321,44.0246974 135.70733,44.2337147 135.77256,44.45826 C135.849122,44.7160891 135.8865,44.9839608 135.88344,45.2529 L135.88344,48.51 L134.98254,48.51 L134.98254,45.276 C135.007737,44.9464534 134.914342,44.61875 134.7192,44.352 C134.51112,44.1270599 134.211594,44.0096323 133.90608,44.03322 C133.644354,44.0300459 133.386345,44.0953444 133.15764,44.22264 C132.917044,44.3612056 132.70023,44.5374642 132.51546,44.7447 L132.51546,48.51 L131.61456,48.51 Z" id="Path" fill="#848484" fill-rule="nonzero"></path>
        <path d="M142.065,44.30118 C142.042152,44.3333782 142.014038,44.3614925 141.98184,44.38434 C141.948702,44.4091102 141.907522,44.4206406 141.86634,44.41668 C141.806891,44.4130514 141.750192,44.3903717 141.70464,44.352 C141.631601,44.3019569 141.556042,44.255696 141.47826,44.2134 C141.372025,44.1567592 141.260643,44.1103503 141.14562,44.0748 C140.99564,44.0306323 140.839963,44.0088376 140.68362,44.01012 C140.456272,44.0061471 140.230799,44.0518724 140.02296,44.1441 C139.832903,44.2333706 139.666673,44.3663549 139.53786,44.53218 C139.402038,44.7168853 139.301771,44.9252518 139.24218,45.14664 C139.174728,45.4091861 139.142109,45.6794649 139.14516,45.95052 C139.141832,46.229787 139.177599,46.5081459 139.25142,46.7775 C139.311707,46.9980729 139.41364,47.2050742 139.55172,47.38734 C139.673699,47.5471134 139.8321,47.6754179 140.01372,47.76156 C140.209323,47.8508006 140.42246,47.8950068 140.63742,47.89092 C140.820734,47.8953141 141.003477,47.8687618 141.17796,47.81238 C141.302984,47.7679421 141.422377,47.7090212 141.5337,47.63682 C141.614303,47.5831983 141.691455,47.5245627 141.7647,47.46126 C141.813388,47.4143054 141.877341,47.3864287 141.94488,47.38272 C142.014778,47.3790082 142.081471,47.4123547 142.12044,47.4705 L142.37454,47.79852 C142.153876,48.0692089 141.865308,48.2764674 141.53832,48.39912 C141.200419,48.5271829 140.841683,48.5914108 140.48034,48.58854 C140.172635,48.592842 139.867403,48.5330542 139.58406,48.41298 C139.311474,48.2951458 139.067295,48.1202821 138.86796,47.90016 C138.662611,47.6547707 138.505823,47.3725529 138.40596,47.06856 C138.285574,46.7083706 138.227759,46.3302256 138.23502,45.95052 C138.231006,45.5917657 138.284027,45.2346526 138.3921,44.89254 C138.487979,44.5854311 138.645147,44.3009575 138.8541,44.05632 C139.061359,43.8176004 139.320547,43.6295305 139.61178,43.50654 C139.937276,43.3681713 140.288432,43.3004596 140.64204,43.30788 C140.96931,43.3023801 141.294402,43.362059 141.59838,43.48344 C141.859017,43.6044761 142.095418,43.7719921 142.296,43.97778 L142.065,44.30118 Z" id="Path" fill="#848484" fill-rule="nonzero"></path>
        <path d="M146.64342,43.30788 C146.933845,43.3048069 147.222244,43.3565307 147.4935,43.46034 C147.748004,43.565789 147.977731,43.7231362 148.16802,43.92234 C148.371657,44.1268825 148.529182,44.3726209 148.63002,44.64306 C148.739752,44.9545219 148.792948,45.2830852 148.7871,45.61326 C148.795056,45.7106551 148.78084,45.8085869 148.74552,45.8997 C148.701921,45.950214 148.636307,45.9761142 148.56996,45.969 L145.15578,45.969 C145.157559,46.2559631 145.202729,46.5410068 145.28976,46.81446 C145.358762,47.0351467 145.471937,47.2394899 145.6224,47.41506 C145.760412,47.5742382 145.934726,47.6978423 146.1306,47.77542 C146.339533,47.8572336 146.562274,47.8980172 146.78664,47.89554 C146.985049,47.89888 147.182835,47.8724048 147.37338,47.817 C147.51817,47.772203 147.658831,47.7150114 147.7938,47.64606 C147.897357,47.5953805 147.997652,47.5382896 148.0941,47.47512 C148.15345,47.430929 148.223735,47.4037734 148.29738,47.39658 C148.365663,47.3945028 148.430223,47.4276553 148.46832,47.48436 L148.72242,47.81238 C148.608644,47.9519968 148.472886,48.0721499 148.32048,48.16812 C148.16488,48.2670939 147.999162,48.3491788 147.82614,48.41298 C147.647479,48.4768941 147.463497,48.5248222 147.27636,48.5562 C147.090116,48.5874398 146.901566,48.6028947 146.71272,48.6024 C146.377642,48.6064523 146.044978,48.5452547 145.73328,48.42222 C145.438852,48.3061092 145.173788,48.126244 144.95712,47.89554 C144.730295,47.6489552 144.557231,47.3578927 144.44892,47.04084 C144.32121,46.6613992 144.258726,46.2630598 144.26412,45.86274 C144.261471,45.5214802 144.317737,45.1823231 144.43044,44.8602 C144.530127,44.5630987 144.687086,44.2884199 144.89244,44.0517 C145.10209,43.8210858 145.358928,43.6383055 145.6455,43.51578 C145.960205,43.3782827 146.299989,43.3074943 146.64342,43.30788 L146.64342,43.30788 Z M146.64342,43.97316 C146.26474,43.9523227 145.894062,44.08757 145.61778,44.34738 C145.352592,44.6366101 145.190204,45.0052316 145.15578,45.39612 L147.92778,45.39612 C147.930888,45.2000746 147.90122,45.0048876 147.84,44.81862 C147.791645,44.6482214 147.706481,44.4905115 147.59052,44.35662 C147.477337,44.2285057 147.336817,44.1274573 147.17934,44.06094 C147.014207,43.9983186 146.838446,43.9685021 146.6619,43.97316 L146.64342,43.97316 Z" id="Shape" fill="#848484" fill-rule="nonzero"></path>
    </g>
</svg>