<svg xmlns="http://www.w3.org/2000/svg" viewBox="0 0 666 210" width="333" height="105">
  <style>
    .shp0{fill:#ffa32b}.shp1{fill:#aadff5}.shp3{fill:#707176}.shp4{fill:#9b9c9f}.shp5{fill:#c4c5c7}.shp9{fill:#58b3e2}.shp10{fill:#babbbd}.shp11{fill:#b0b1b3}
  </style>
  <g id="Calque 1">
    <g id="&lt;Group&gt;">
      <g id="&lt;Group&gt;">
        <path id="&lt;Path&gt;" class="shp0" d="M107.79 80.87c-9.63.31-14.45 3.58-14.45 9.8 0 9.32 14 10.33 14.45 10.33.46 0 14.45-1.01 14.45-10.33 0-6.22-4.81-9.49-14.45-9.8z"/>
        <path id="&lt;Path&gt;" class="shp1" d="M100.98 144.68c1.85 2.56 2.73 5.64 2.5 8.8-.26 3.65-1.92 7-4.72 9.42a16.882 16.882 0 01-5.43 3.13c.27.93.52 1.89.71 2.93 2.53 13.64-2.78 14.75-3.68 15.41-.94.68-1.59.72-1.24 1.58.13.33.24.81.29 1.24 2.04-.27 4.05-.73 6.06-1.35 7.96-3.34 12.54-6.56 15.01-8.75.92-.87 1.79-1.81 2.59-2.8-4.17-9.78-3.39-11.2-4.42-19.33-.49-3.84-3.96-7.46-7.67-10.28z"/>
        <path id="&lt;Path&gt;" class="shp1" d="M101.67 153.36c.2-3.15-.84-6.19-2.93-8.57-3.4-3.87-9.37-4.27-13.3-.91a7.219 7.219 0 00-2.52 5.01c-.06.99.07 1.98.42 2.92 2.08 2.83 5.63 2.74 6.77 2.53 1.5-.3 5.32-1.48 4.64-4.97-.9-4.59-4.13-3.81-5.27-3.59-1.15.23-1.98 1.3-1.84 2.74.14 1.43 2.6 1.13 2.41.15-.22-1.14 1.6-1.42 1.52-.02-.14 3.17-4.92 3.36-5.64-.27-.58-2.9 2.62-5.21 4.18-5.52 1.54-.31 6.25.1 7.13 4.74.93 4.65-2.52 7.72-5.51 8.52-1.99.53-2.84.99-2.53 1.39 1.35 1.74 2.53 4 3.55 6.79 1.71-.62 3.37-1.54 4.81-2.79 2.42-2.09 3.87-4.98 4.11-8.15z"/>
        <path id="&lt;Path&gt;" d="M67.54 186.55h.02c-.06-.16-.32.01-.02 0z" fill="#244d74"/>
        <path id="&lt;Path&gt;" class="shp3" d="M69.31 186.72c-.81.07-1.29-.19-1.75-.17.05.12-.06.48-.73 1.33-1.01 1.27-1.21 2.17-.6 2.71 7.41 1.02 14.34-.24 18.11-1.18-5.11.04-10.2-.85-15.03-2.69zM54.67 177.67c-4.57 2.68-8.23 3.49-11 2.44-.04.86-.99 1.03-2.15 2.24-.77.81-1.12 1.32-1.03 1.54 6.62 3.46 14.27 5.48 22.95 6.05l.43-1.06c-1.25-.64-.11-2.21 1.52-3.9a40.08 40.08 0 01-10.32-7.55c-.14.08-.28.17-.4.24zM38.19 157.48c-9.08 4.15-11.32 5.84-13.57 6.15-2.24.31-2.01-.24-2.72.13-.69.34-3-.33 3.55 7.7 6.55 8.01 9.27 8.73 10.18 9.4.9.67 1.91-1.36 2.43-2.17.56-.8.35-.42-.97-1.83-.89-.94-.67-2.06.67-3.35 1.97-2.74 5.26-5.22 9.03-7.48-1.75-3.35-3.12-6.9-4.07-10.56-1.46.6-2.97 1.29-4.53 2.01z"/>
        <path id="&lt;Path&gt;" class="shp4" d="M41.29 140.2c-10.3.87-22.66 5.27-24.66 6.24-2.37 1.16-3.94 1.35-3.51 3.57.69 3.5 2.75 7.53 6.16 12.08l3.46-1.24c-.02-2.65.84-2.46 7.25-6.19 3.14-1.8 7.44-3.63 11.6-5.15-.39-3.07-.49-6.18-.3-9.31zM9.74 130.38c-.25 4.15.29 8.87 1.63 14.16l2.74-.6c-.76-3.43 2.75-4.47 7.36-5.65 3.56-.92 11.88-2.05 20.32-2.67.52-3.22 1.32-6.36 2.41-9.36-11.16-.56-22.64.81-34.46 4.12z"/>
        <path id="&lt;Path&gt;" class="shp5" d="M62.18 102.78c-1.91-1.85-3.88-3.69-5.69-5.32-4.77-4.24-15.55-7.48-32.36-9.73-2.72.9-5.19 4.74-7.4 11.52l3.79 1.14 1.11-1.82c3.86-4.25 22.07 3.02 27.27 5.28 2.13.92 4.75 2.49 7.19 4.07a56.3 56.3 0 012.38-2.2c1.21-1.03 2.46-2.01 3.71-2.94zM13.2 108.36c-1.76.79-3.03 6.31-3.82 16.55l3-.03c-.08-.44.21-1.11.89-1.99.99-1.32 9.83-4.72 29.4-4.09 1.63.03 3.2.2 4.76.42 1.23-2.22 2.63-4.33 4.18-6.34-13.05-4.39-25.85-5.9-38.41-4.52z"/>
        <path id="&lt;Path&gt;" d="M72.86 113.39c.02 0 .04.01.05.01-.01 0-.03-.01-.05-.01z" fill="#295c8f"/>
        <path id="&lt;Path&gt;" d="M67.28 73.79c-4.34-4.05-10.62-7.44-18.85-10.16-7.65 3.84-13.22 8.72-16.72 14.63 2.8-.45 8.53 1.06 17.19 4.53.06-.24.43-.71 1.13-1.41s1.62-.67 2.75.09c8.39 5.35 13.75 11.38 17.07 16.46 3.79-2.01 7.72-3.61 11.75-4.81-4.94-7.54-10.91-16.17-14.32-19.33z" fill="#e2e2e3"/>
        <path id="&lt;Path&gt;" d="M110.48 177.09c1.29-1.13 2.15-2.06 2.59-2.78v-.02c-.8.99-1.67 1.93-2.59 2.8z" fill="#fff"/>
        <path id="&lt;Path&gt;" class="shp9" d="M87.99 165.21c-.05-2.24-.05-4.17-.24-5.1-.24-1.2-.83-1.6-1.77-1.18.16 1.72.01 3.77-.46 6.15.81.11 1.63.17 2.47.13zM87.39 181.53c1-3.54 2.02-4.8 1.18-9.39-.29-1.65-.43-3.43-.52-5.11-1.01.03-1.97-.03-2.96-.17-.51 1.87-1.29 3.91-2.47 5.95-5.02 8.56-8.36 11.73-10.44 12.98 4.77 1.49 9.78 2.06 14.76 1.69-.82-2.44-.4-2.82.45-5.95zM69.47 181.06c2.33-2.41 6.43-8.2 7.55-11.41.54-1.51 1.13-3.27 1.72-5.01-1.49-.88-2.87-2-4.05-3.36-.07-.05-.1-.11-.14-.16-6.09 6.82-12.62 11.97-17.88 15.31 3.04 3.01 6.45 5.4 10.11 7.2.98-.93 1.98-1.84 2.69-2.57zM79.33 162.86c.82-2.47 1.58-4.78 2.27-6.92l-2.33-.59a97.101 97.101 0 01-3.51 4.37c.09.12.19.24.29.35.97 1.11 2.09 2.03 3.28 2.79zM70.88 154.96c-.37-.92-.67-1.85-.89-2.81-2.04-.11-4.54-.3-7.5-.58-6.17-.59-11.76.71-18.06 3.21.91 3.57 2.23 7.04 3.96 10.34 4.63-2.6 9.78-4.91 14.07-6.97 3.13-1.49 6-2.51 8.42-3.19zM77.5 153.6l-1.12-1.19c-.53 0-2.02-.01-4.47-.14.21.75.43 1.5.72 2.21 2.01-.49 3.63-.79 4.87-.88zM69.54 146.1c.05-.63.12-1.26.23-1.87-4.41-1.12-14.98-3.6-23.33-4.14-1.07-.07-2.17-.07-3.32 0-.19 2.95-.1 5.89.24 8.77 3.65-1.29 7-2.34 9.12-2.95 3.53-1 12.46-.28 17.06.19zM71 139.86c.47-1.2 1.05-2.37 1.78-3.44-2.09-1.43-10.83-7.16-19.45-9.02-2.34-.5-4.76-.83-7.23-1.02a47.25 47.25 0 00-2.43 9.11c1.74-.12 3.49-.21 5.18-.26 8.09-.29 18.07 3.1 22.15 4.63zM76.76 131.82c.51-.44 1.03-.85 1.58-1.25.04-.44.04-.82.01-1.15-1.75-1.33-3.11-4.03-4.09-8.08-2.99-.25-3.92-3.5-2.87-6.09.85-2.18 1.34-1.99 1.47-1.86-.41-.45-4.56-4.71-9.34-9.33-1.31.98-2.6 1.97-3.87 3.06a69.1 69.1 0 00-2.01 1.83c2.89 1.95 5.17 3.67 5.43 3.93.52.54.76 1.4 1 1.92.16.33-.35 1.25-1.53 2.75-3-1.59-6.03-2.9-9.08-4.01a48.59 48.59 0 00-4.12 5.99c13.15 2.47 23.26 10.21 26.62 13.05.27-.26.5-.52.8-.76zM74.65 108.73c.51 3.4 1.22 3.06 2.23 3.2 1.02.15 3.36.31 4.14 3.18.51 1.9-.55 3.53-3.19 4.89l3.14 8.86c1.4-.8 2.87-1.44 4.36-1.97-.04-12.34 1.44-19.29 4.47-20.86-2.06-3.4-4.45-7.17-7.16-11.3a60.774 60.774 0 00-11.83 4.77c2.54 4.28 3.61 7.73 3.84 9.23zM82.44 133.03c.32-.02 1.31-.64 2.98-1.84-.03-.83-.04-1.6-.07-2.36-1.29.49-2.55 1.08-3.77 1.8l.86 2.4z"/>
        <path id="&lt;Path&gt;" class="shp9" d="M85.35 128.83c-.02-.65-.02-1.3-.02-1.94-1.49.53-2.96 1.17-4.36 1.97l.61 1.77c1.22-.72 2.48-1.31 3.77-1.8z"/>
        <path id="&lt;Path&gt;" class="shp10" d="M123.98 64.43c-.14-.18-.36-.79-.55-2.38-.17-1.61.43-4.13-.4-8.76-.83-4.63-3.65-6.4-4.01-6.56-.37-.15-.6.25.22 1.97.79 1.71 1.9 5.86 1.75 8.44-.17 2.57-1.73 4.26-4.24 6.2-1.68 1.28-4.67 2.04-8.96 2.28-4.3-.24-7.3-1-8.98-2.28-2.51-1.94-4.06-3.63-4.23-6.2-.13-2.58.97-6.73 1.78-8.44.8-1.72.56-2.12.2-1.97-.37.16-3.18 1.93-4.02 6.56-.82 4.63-.21 7.15-.39 8.76-.2 1.59-.4 2.2-.56 2.38-.16.18-.18.25.41.41.64.14 4.6 1.86 7.78 3.12 3.19 1.26 6.45 1.97 8.01 1.97 1.57 0 4.82-.71 8.01-1.97 3.18-1.26 7.14-2.98 7.76-3.12.61-.16.58-.23.42-.41zM121.23 106.66c-1.34 0-2.98-.45-5.65-1.2-1.77-.49-4.37-.66-7.79-.51-3.42-.15-6.01.02-7.79.51-2.67.75-4.3 1.2-5.65 1.2-.89 0-1.34.01-1.33.04.07.44.11.71.13.79.05.12 1.01.05 2.04.73 1 .67 6.31 1.88 12.6 1.88 6.28 0 11.59-1.21 12.6-1.88 1.02-.68 2-.61 2.05-.73.01-.08.05-.35.11-.79.02-.03-.42-.04-1.32-.04zM124.55 124.71c-.64-3.28-.41-6.82-.41-7.24 0-.29-.09-.4-.28-.32-4.73-.73-5.44-1.43-9.38-2.56-2.62-.77-4.85-1.05-6.69-.87-1.84-.18-4.07.1-6.69.87-3.93 1.13-4.67 1.83-9.38 2.56-.19-.08-.29.03-.29.32 0 .42.21 3.96-.4 7.24-.6 3.28-.67 8.38.11 11.11.04.18.2.23.5.15.48-.13.57-.4.9-1.2.34-.8.27-1.23.21-2.79-.04-1.57-.04-6.45 3.25-9.15 3.33-2.71 6.42-4.85 11.79-4.85 5.38 0 8.47 2.14 11.78 4.85 3.3 2.7 3.3 7.58 3.26 9.15-.07 1.56-.13 1.99.2 2.79.36.8.43 1.07.88 1.2.33.08.5.03.54-.15.76-2.73.71-7.83.1-11.11z"/>
        <path id="&lt;Path&gt;" class="shp10" d="M107.79 122.58c-2.23 0-8.83 1.56-8.5 9.55.2 5.55 7.49 8 7.84 8.12.38.11.39.19.66.19s.28-.08.64-.19c.37-.12 7.66-2.57 7.86-8.12.31-7.99-6.25-9.55-8.5-9.55zM121.23 74.22c-1.49 0-3.4.43-6.36-.53-1.96-.63-4.32-.91-7.08-.82-2.76-.09-5.12.19-7.08.82-2.95.96-4.86.53-6.36.53s-1.74.12-1.74.49.45.98.8 1.21c1.69-.12 2.96-.03 3.81.29 1.25.51 4.52 1.79 10.57 1.79 6.05 0 9.32-1.28 10.58-1.79.84-.32 2.11-.41 3.81-.29.33-.23.8-.84.8-1.21s-.24-.49-1.75-.49zM117.96 25.45c-2.04 1.81-3.44 2.77-4.22 2.88-1.13.13-2.75.06-4.19-1.02-.18-.26-.4-.26-.65 0-.32.34-.9 1.32-1.12 1.71-.05-.3.07-.74.01-.96-.34-1.87.22-3.86.34-4.41.09-.55.42-.84.3-1.12-.16-.42-.44-1.14-.83-2.15.02-.14-.18.04-.6.53-.6.75-1.14 1.74-1.46 1.96-.3.19-.56.46-.12.88.42.44.59 1.17.63 1.53.04.37.21 2.19.06 2.98-.05.23-.02.53.03.87v.06c0 .04 0 .09.03.13.01.13.06.29.14.42-.1.05-.18.09-.26.12-.28.03-.61.24-1 .61-.18.19-.43.41-.72.66v.05c-.37.67-.59 1.1-.68 1.28-.08.14-.14.28-.22.44-1.35 2.93-5.27 5.57-5.79 5.97-.52.41-.14.61-.03.7.09.05.13.3.13.76l.34.02c.06-.15.23-.34.49-.59.39-.37 3.01-1.62 4.5-1.92 1.22-.26 2.76-.22 3.4-.26-.05.09-.05.17-.05.26v.18l-.02 1.75c0 1.28 0 3.36-.07 3.6l-.06.24c-.1 1.01-.68 2.08-3.37 4.42s-3.65 4.3-3.65 8.06c-.01 3.77 5.72 7.25 7.85 7.41l.16.03c2.14-.18 7.88-3.61 7.88-7.38 0-3.78-.96-5.74-3.62-8.08-2.69-2.35-3.14-3.77-3.26-4.77-.12-1.01-.15-4.89-.15-5.2-.02-.17-.05-.43-.07-.64.07-.04.15-.1.2-.21.49.28.91.39 1.27.33.55-.09.65-.55.78-.58.1 0 .54.28 1 .36.46.05.54-.05.68-.31.03-.07.07-.13.1-.19.13-.27.2-.51.21-.72 1.02.42 1.45.12 1.29-.89.43 0 .93.03 1.03-.32.12-.4.04-1.37.19-1.45.14-.08 1.09-1.03.76-2.02-.31-.96-.34-1.36.54-2.36.9-1 1.62-1.14 1.49-1.95-.12-.8.08-.82.27-.99.13-.12.17-.36.11-.71z"/>
        <g id="&lt;Group&gt;">
          <path id="&lt;Path&gt;" class="shp11" d="M141.87 180.16c-10.9-1.02-16-2.7-15.31-5.05.7-2.35 5.81-.67 15.31 5.05zM141.87 173.16c-10.61-.93-15.57-2.56-14.87-4.91.71-2.36 5.66-.72 14.87 4.91zM141.87 166.59c-10.36-.86-15.19-2.46-14.49-4.82.71-2.35 5.54-.75 14.49 4.82zM141.87 159.39c-10.03-.78-14.71-2.34-14.02-4.7.71-2.34 5.38-.78 14.02 4.7zM141.87 152.38c-9.7-.67-14.2-2.18-13.5-4.53.69-2.36 5.19-.85 13.5 4.53zM141.87 145.37c-9.39-.58-13.74-2.05-13.05-4.4.71-2.34 5.06-.87 13.05 4.4zM141.87 138.36c-9.09-.48-13.3-1.9-12.61-4.25.71-2.36 4.91-.94 12.61 4.25zM141.87 131.68c-8.79-.39-12.83-1.77-12.14-4.13.7-2.35 4.74-.97 12.14 4.13zM141.87 124.69c-8.47-.31-12.35-1.64-11.65-3.99.7-2.36 4.58-1.03 11.65 3.99zM141.87 117.68c-8.18-.22-11.93-1.51-11.23-3.86.69-2.35 4.44-1.06 11.23 3.86zM142.16 110.63c-8.05-.18-11.71-1.45-11.01-3.8.69-2.35 4.36-1.09 11.01 3.8zM142.16 103.62c-7.71-.09-11.22-1.3-10.53-3.65.7-2.35 4.21-1.14 10.53 3.65zM142.13 96.65c-7.41-.06-10.78-1.23-10.11-3.52.68-2.28 4.05-1.11 10.11 3.52zM142.51 89.83c-7.31-.05-10.62-1.21-9.95-3.48.68-2.27 4-1.11 9.95 3.48zM142.37 82.91c-6.83-.11-9.94-1.18-9.33-3.23.61-2.05 3.72-.98 9.33 3.23zM142.38 76.01c-6.59-.03-9.58-1.07-8.97-3.13.61-2.05 3.6-1.01 8.97 3.13zM142.36 69.06c-6.24-.03-9.08-1.02-8.5-2.97.58-1.94 3.42-.95 8.5 2.97zM142.8 61.93c-6.26 0-9.1-.99-8.53-2.98.61-1.98 3.46-.99 8.53 2.98zM142.78 54.88c-5.93 0-8.62-.94-8.06-2.83.57-1.88 3.26-.94 8.06 2.83zM143.01 48.27c-5.76.12-8.35-.8-7.76-2.76.57-1.96 3.16-1.04 7.76 2.76zM142.99 41.13c-5.38.06-7.82-.8-7.29-2.57.54-1.77 2.97-.92 7.29 2.57zM142.99 34.13c-5.07.15-7.35-.66-6.82-2.44.53-1.77 2.8-.96 6.82 2.44zM142.97 27.28c-4.75.15-6.88-.61-6.37-2.28.48-1.66 2.61-.9 6.37 2.28zM142.95 20.45c-4.46.11-6.45-.6-5.99-2.13.45-1.54 2.44-.83 5.99 2.13zM144.04 180.16c10.9-1.02 16-2.7 15.31-5.05-.7-2.35-5.81-.67-15.31 5.05zM144.04 173.16c10.61-.93 15.56-2.56 14.87-4.91-.7-2.36-5.66-.72-14.87 4.91zM144.04 166.59c10.36-.86 15.19-2.46 14.47-4.82-.69-2.35-5.51-.75-14.47 4.82zM144.04 159.39c10.03-.78 14.71-2.34 14.01-4.7-.71-2.34-5.38-.78-14.01 4.7zM144.04 152.38c9.69-.67 14.19-2.18 13.5-4.53-.7-2.36-5.2-.85-13.5 4.53zM144.04 145.37c9.39-.58 13.74-2.05 13.04-4.4-.7-2.34-5.05-.87-13.04 4.4zM144.04 138.36c9.1-.48 13.29-1.9 12.59-4.25-.69-2.36-4.89-.94-12.59 4.25zM144.04 131.68c8.78-.39 12.82-1.77 12.13-4.13-.7-2.35-4.75-.97-12.13 4.13zM144.04 124.69c8.46-.31 12.34-1.64 11.64-3.99-.69-2.36-4.57-1.03-11.64 3.99zM144.04 117.68c8.18-.22 11.92-1.51 11.22-3.86-.71-2.35-4.45-1.06-11.22 3.86zM143.75 110.63c8.04-.18 11.71-1.45 11.01-3.8-.7-2.35-4.37-1.09-11.01 3.8zM143.75 103.62c7.71-.09 11.22-1.3 10.53-3.65-.7-2.35-4.21-1.14-10.53 3.65zM143.77 96.65c7.42-.06 10.79-1.23 10.1-3.52-.67-2.28-4.04-1.11-10.1 3.52zM143.4 89.83c7.29-.05 10.61-1.21 9.95-3.48-.68-2.27-3.99-1.11-9.95 3.48zM143.52 82.91c6.85-.11 9.96-1.18 9.35-3.23-.61-2.05-3.73-.98-9.35 3.23zM143.52 76.01c6.6-.03 9.59-1.07 8.97-3.13-.6-2.05-3.59-1.01-8.97 3.13zM143.54 69.06c6.24-.03 9.08-1.02 8.51-2.97-.58-1.94-3.42-.95-8.51 2.97zM143.1 61.93c6.27 0 9.12-.99 8.53-2.98-.59-1.98-3.44-.99-8.53 2.98zM143.12 54.88c5.93 0 8.62-.94 8.06-2.83-.57-1.88-3.25-.94-8.06 2.83z"/>
          <path id="&lt;Path&gt;" class="shp11" d="M142.9 48.27c5.76.12 8.34-.8 7.76-2.76-.57-1.96-3.16-1.04-7.76 2.76zM142.92 41.13c5.38.06 7.81-.8 7.27-2.57-.51-1.77-2.94-.92-7.27 2.57zM142.92 34.13c5.06.15 7.33-.66 6.81-2.44-.52-1.77-2.79-.96-6.81 2.44zM142.95 27.28c4.73.15 6.85-.61 6.36-2.28-.48-1.66-2.61-.9-6.36 2.28zM142.95 20.45c4.45.11 6.45-.6 6-2.13-.46-1.54-2.46-.83-6 2.13z"/>
          <path id="&lt;Path&gt;" class="shp11" d="M141.22 195.65l3.36.55-1.63-193.68-1.73 193.13z"/>
        </g>
        <g id="&lt;Group&gt;">
          <path id="&lt;Path&gt;" class="shp11" d="M93.02 200.76c-7.31 2.09-14.88 4.24-29.75 4.24-14.89 0-22.47-2.15-29.79-4.24-7.49-2.13-15.24-4.34-30.48-4.34v2.47c14.9 0 22.46 2.15 29.8 4.24 7.49 2.14 15.22 4.35 30.47 4.35 15.22 0 22.95-2.21 30.43-4.35 7.31-2.09 14.88-4.24 29.73-4.24 14.72 0 21.88 2.06 29.46 4.24 7.39 2.14 15.04 4.35 30.14 4.35V205c-14.74 0-21.89-2.06-29.47-4.24-7.4-2.13-15.05-4.34-30.13-4.34-15.21 0-22.93 2.21-30.41 4.34z"/>
        </g>
      </g>
      <g id="&lt;Group&gt;">
        <g id="&lt;Group&gt;">
          <path id="&lt;Compound Path&gt;" class="shp4" d="M189.27 131.29h1.99l17.87 27.4v-27.4h1.95v31.04h-1.95l-17.87-27.45v27.45h-1.99v-31.04zM216.22 140.12h2v14.76c0 4.08 2.11 6.12 6.34 6.12 1.89 0 3.4-.5 4.52-1.49 1.13-.99 1.69-2.46 1.69-4.41v-14.98h1.99v22.21h-1.95l.14-2.62c-1.51 2.07-3.64 3.11-6.39 3.11-5.56 0-8.34-2.72-8.34-8.16v-14.54zM239.9 143.09v19.24h-1.99v-22.21h1.99l-.18 1.33c2.1-1.1 4.27-1.64 6.5-1.64 2.23 0 3.99.72 5.3 2.17 2.6-1.48 5.02-2.22 7.27-2.22 2.1 0 3.75.68 4.96 2.04 1.21 1.36 1.82 3.09 1.82 5.19v15.34h-1.95v-15.21c0-1.42-.3-2.58-.89-3.5-.94-1.42-2.45-2.13-4.52-2.13-1.33 0-2.64.31-3.94.93l-1.87.93c.45.86.67 2.13.67 3.82v15.16h-1.95v-15.65c0-1.54-.42-2.74-1.24-3.59-.95-1.01-2.4-1.51-4.35-1.51-1.95 0-3.83.5-5.63 1.51z"/>
          <path id="&lt;Compound Path&gt;" fill-rule="evenodd" class="shp4" d="M285.43 160.78c-2.27 1.39-4.65 2.08-7.14 2.08-5.14 0-7.71-2.16-7.71-6.47v-9.09c0-2.4.75-4.26 2.24-5.59 1.49-1.33 3.47-1.99 5.92-1.99 2.45 0 4.37.66 5.74 1.97 1.38 1.32 2.06 3.14 2.06 5.48v5.32l-13.96.75v3.19c0 1.69.54 2.89 1.64 3.61 1.09.73 2.33 1.09 3.72 1.09 2.13 0 4.36-.63 6.69-1.91l.8 1.56zm-12.85-13.48v3.99l11.97-.62v-3.73c0-1.98-.61-3.39-1.82-4.23-1.21-.84-2.62-1.26-4.24-1.26-1.61 0-3 .47-4.16 1.42-1.17.94-1.75 2.42-1.75 4.43zm5.18-8.82l2.31-5.37c.27-.59.65-.89 1.15-.89.71 0 1.16.29 1.33.85.03.14.05.31.05.48 0 .18-.08.37-.22.58l-3.02 4.35h-1.6z"/>
          <path id="&lt;Compound Path&gt;" class="shp4" d="M290.8 140.12h1.99l-.08 1.77c1.44-1.45 3.39-2.17 5.85-2.17 1 0 2.11.13 3.32.4l-.53 1.86c-.92-.33-1.84-.49-2.77-.49-.93 0-1.87.15-2.82.44-1.98.57-2.97 1.54-2.97 2.93v17.47h-1.99v-22.21zM305.5 132.91c-.26-.25-.38-.54-.38-.86 0-.33.12-.61.38-.84.25-.24.53-.36.86-.36.33 0 .6.12.84.36.24.23.36.51.36.84 0 .32-.12.61-.36.86s-.51.38-.84.38c-.33 0-.61-.13-.86-.38zm-.16 7.21h2v22.21h-2v-22.21z"/>
          <path id="&lt;Compound Path&gt;" fill-rule="evenodd" class="shp4" d="M327.46 140.12h2v31.52l-2-.76v-10.86c-1.39 1.89-3.42 2.84-6.11 2.84-2.7 0-4.8-.72-6.32-2.15-1.53-1.43-2.29-3.5-2.29-6.18v-6.12c0-2.54.73-4.62 2.2-6.23 1.46-1.61 3.6-2.42 6.41-2.42 1.09 0 2.21.24 3.36.71 1.16.47 2.13 1.17 2.93 2.08l-.18-2.43zm-12.72 8.11v6.74c0 2.01.62 3.52 1.86 4.54 1.24 1.02 2.78 1.53 4.61 1.53 1.83 0 3.33-.49 4.5-1.48s1.75-2.48 1.75-4.46v-8.11c-.2-1.89-.93-3.27-2.17-4.12-1.24-.86-2.66-1.29-4.25-1.29-1.6 0-3.05.52-4.35 1.57-1.3 1.05-1.95 2.74-1.95 5.08z"/>
          <path id="&lt;Compound Path&gt;" class="shp4" d="M332.56 140.12h2v14.76c0 4.08 2.11 6.12 6.34 6.12 1.89 0 3.39-.5 4.52-1.49 1.12-.99 1.68-2.46 1.68-4.41v-14.98h2v22.21h-1.95l.13-2.62c-1.51 2.07-3.64 3.11-6.38 3.11-5.56 0-8.34-2.72-8.34-8.16v-14.54z"/>
          <path id="&lt;Compound Path&gt;" fill-rule="evenodd" class="shp4" d="M367.19 160.78c-2.28 1.39-4.66 2.08-7.14 2.08-5.14 0-7.72-2.16-7.72-6.47v-9.09c0-2.4.75-4.26 2.24-5.59 1.5-1.33 3.47-1.99 5.92-1.99 2.46 0 4.37.66 5.74 1.97 1.38 1.32 2.06 3.14 2.06 5.48v5.32l-13.96.75v3.19c0 1.69.55 2.89 1.64 3.61 1.09.73 2.33 1.09 3.73 1.09 2.12 0 4.35-.63 6.69-1.91l.8 1.56zm-12.86-13.48v3.99l11.97-.62v-3.73c0-1.98-.6-3.39-1.82-4.23-1.21-.84-2.62-1.26-4.23-1.26-1.61 0-3 .47-4.17 1.42-1.17.94-1.75 2.42-1.75 4.43zM398.75 160.78c-2.27 1.39-4.65 2.08-7.13 2.08-5.15 0-7.72-2.16-7.72-6.47v-9.09c0-2.4.75-4.26 2.24-5.59 1.49-1.33 3.47-1.99 5.92-1.99 2.45 0 4.37.66 5.74 1.97 1.38 1.32 2.06 3.14 2.06 5.48v5.32l-13.96.75v3.19c0 1.69.54 2.89 1.64 3.61 1.09.73 2.33 1.09 3.72 1.09 2.13 0 4.36-.63 6.7-1.91l.79 1.56zM385.9 147.3v3.99l11.97-.62v-3.73c0-1.98-.61-3.39-1.82-4.23-1.21-.84-2.62-1.26-4.24-1.26-1.61 0-3 .47-4.16 1.42-1.17.94-1.75 2.42-1.75 4.43z"/>
          <path id="&lt;Compound Path&gt;" class="shp4" d="M403.54 131.29h2v8.83h5.8l-.88 1.9h-4.92v14.46c0 2.51 1.09 4.12 3.28 4.83l-.58 1.59c-1.66-.47-2.85-1.22-3.59-2.26-.74-1.03-1.11-2.42-1.11-4.16v-25.19zM430.14 143.09v19.24h-1.99v-22.21h1.99l-.18 1.33c2.1-1.1 4.27-1.64 6.5-1.64 2.23 0 4 .72 5.3 2.17 2.6-1.48 5.02-2.22 7.27-2.22 2.1 0 3.75.68 4.97 2.04 1.21 1.36 1.81 3.09 1.81 5.19v15.34h-1.95v-15.21c0-1.42-.29-2.58-.89-3.5-.94-1.42-2.45-2.13-4.52-2.13-1.33 0-2.64.31-3.94.93l-1.87.93c.45.86.67 2.13.67 3.82v15.16h-1.95v-15.65c0-1.54-.41-2.74-1.24-3.59-.95-1.01-2.4-1.51-4.35-1.51-1.95 0-3.82.5-5.63 1.51z"/>
          <path id="&lt;Compound Path&gt;" fill-rule="evenodd" class="shp4" d="M459.45 154.17v-5.85c0-2.81.72-4.96 2.15-6.45 1.43-1.49 3.46-2.24 6.1-2.24 2.63 0 4.67.77 6.11 2.33 1.45 1.55 2.18 3.67 2.18 6.36v5.85c0 2.48-.68 4.54-2.04 6.16-1.36 1.63-3.42 2.44-6.17 2.44-2.74 0-4.82-.82-6.23-2.46-1.4-1.64-2.1-3.68-2.1-6.14zm1.99-5.9v6.21c0 1.89.56 3.45 1.67 4.68 1.1 1.22 2.66 1.84 4.67 1.84s3.55-.61 4.61-1.82c1.07-1.21 1.6-2.78 1.6-4.7v-6.21c0-2.3-.57-4.02-1.71-5.14-1.13-1.12-2.65-1.68-4.54-1.68-1.89 0-3.41.55-4.57 1.66-1.15 1.11-1.73 2.83-1.73 5.16zM488.84 139.76c2.54 0 4.61.5 6.21 1.51v-9.98h1.99v31.04c-2.54.35-4.89.53-7.04.53-2.16 0-4.11-.44-5.86-1.33-2.3-1.18-3.45-3.24-3.45-6.16v-8.38c0-3.11 1.25-5.23 3.76-6.39 1.25-.56 2.71-.84 4.39-.84zm6.21 3.28c-1.8-.97-3.92-1.46-6.34-1.46-.44 0-.89.01-1.33.04-1.33.12-2.45.65-3.37 1.6-.92.95-1.38 2.25-1.38 3.9v8.29c0 1.8.64 3.18 1.91 4.13 1.3.97 2.88 1.46 4.75 1.46 1.86 0 3.78-.15 5.76-.45v-17.51zM515.27 160.78c-2.28 1.39-4.66 2.08-7.14 2.08-5.15 0-7.72-2.16-7.72-6.47v-9.09c0-2.4.75-4.26 2.24-5.59 1.49-1.33 3.47-1.99 5.92-1.99 2.45 0 4.37.66 5.74 1.97 1.38 1.32 2.06 3.14 2.06 5.48v5.32l-13.96.75v3.19c0 1.69.55 2.89 1.64 3.61 1.09.73 2.33 1.09 3.72 1.09 2.13 0 4.36-.63 6.7-1.91l.8 1.56zm-12.86-13.48v3.99l11.97-.62v-3.73c0-1.98-.61-3.39-1.82-4.23-1.21-.84-2.62-1.26-4.23-1.26-1.62 0-3 .47-4.17 1.42-1.17.94-1.75 2.42-1.75 4.43z"/>
          <path id="&lt;Compound Path&gt;" class="shp4" d="M520.81 140.12h1.99l-.09 1.77c1.45-1.45 3.4-2.17 5.85-2.17 1.01 0 2.12.13 3.33.4l-.53 1.86c-.92-.33-1.84-.49-2.77-.49-.93 0-1.87.15-2.82.44-1.98.57-2.97 1.54-2.97 2.93v17.47h-1.99v-22.21zM542.31 141.58c-2.3 0-4.39.5-6.25 1.51v19.24h-2v-22.21h2v1.19c1.65-1.03 3.77-1.55 6.34-1.55 1.68 0 3.1.28 4.26.84 2.51 1.16 3.76 3.28 3.76 6.39v15.34h-1.95v-15.25c0-1.6-.45-2.86-1.35-3.79-.9-.93-2-1.47-3.3-1.62-.51-.06-1.01-.09-1.51-.09zM557.23 132.91c-.25-.25-.38-.54-.38-.86 0-.33.13-.61.38-.84.25-.24.54-.36.86-.36.33 0 .61.12.85.36.23.23.35.51.35.84 0 .32-.12.61-.35.86-.24.25-.52.38-.85.38-.32 0-.61-.13-.86-.38zm-.16 7.21h2v22.21h-2v-22.21zM577.51 140.87l-.71 1.68c-1.12-.76-2.51-1.16-4.16-1.17-1.66-.01-3.02.35-4.08 1.09-1.07.74-1.6 1.73-1.6 2.97 0 1.21.51 2.13 1.53 2.77 1.02.63 2.17 1.14 3.46 1.53 1.28.38 2.57.8 3.86 1.26 1.28.46 2.37 1.17 3.25 2.13.89.96 1.33 2.25 1.33 3.88 0 1.62-.65 3.03-1.97 4.21-1.31 1.18-3.23 1.77-5.76 1.77s-4.52-.6-5.96-1.81c-1.45-1.22-2.21-2.71-2.27-4.48h1.91c.18 1.39.85 2.47 2.02 3.26 1.17.78 2.55 1.17 4.17 1.17 1.61 0 2.99-.37 4.14-1.11 1.15-.73 1.73-1.73 1.73-2.99 0-1.26-.43-2.25-1.29-2.99-.85-.74-1.92-1.31-3.19-1.71-1.27-.4-2.54-.8-3.81-1.22a9.728 9.728 0 01-3.37-1.86c-1.15-.98-1.73-2.2-1.73-3.66s.58-2.83 1.75-4.1c1.17-1.27 3.1-1.91 5.79-1.91.91 0 1.79.12 2.61.34.83.22 1.42.43 1.78.64l.57.31z"/>
          <path id="&lt;Compound Path&gt;" fill-rule="evenodd" class="shp4" d="M593.3 162.77c-6.48 0-9.71-2.64-9.71-7.93v-3.68c0-2.93 1.03-4.9 3.1-5.9 1.07-.5 2.14-.75 3.24-.75 3.6 0 6.52.82 8.73 2.48 0-1.69-.51-3.05-1.53-4.08-1.02-1.03-2.89-1.55-5.61-1.55h-.22l.14-1.6c2.39 0 4.16.28 5.32.84.62.33 1.16.65 1.64.98.47.32.84.75 1.1 1.29.27.53.49.99.67 1.39.18.4.29.94.35 1.62.09 1.03.14 2.11.14 3.24v13.21c-3.08.29-5.53.44-7.36.44zm-7.76-11.48v3.86c0 1.41.34 2.58 1.04 3.5.7.91 1.63 1.52 2.82 1.82 2.66.71 5.74.76 9.26.17v-12.01c-2.45-1.36-5.13-2.13-8.02-2.31h-.4c-1.27 0-2.37.39-3.3 1.18-.94.78-1.4 2.04-1.4 3.79z"/>
          <path id="&lt;Compound Path&gt;" class="shp4" d="M603.67 131.29h2v8.83h5.8l-.88 1.9h-4.92v14.46c0 2.51 1.09 4.12 3.28 4.83l-.58 1.59c-1.66-.47-2.85-1.22-3.59-2.26-.74-1.03-1.11-2.42-1.11-4.16v-25.19zM616.33 132.91c-.25-.25-.38-.54-.38-.86 0-.33.13-.61.38-.84.25-.24.54-.36.86-.36.33 0 .61.12.85.36.23.23.35.51.35.84 0 .32-.12.61-.35.86-.24.25-.52.38-.85.38-.32 0-.61-.13-.86-.38zm-.16 7.21h2v22.21h-2v-22.21z"/>
          <path id="&lt;Compound Path&gt;" fill-rule="evenodd" class="shp4" d="M624.02 154.17v-5.85c0-2.81.72-4.96 2.15-6.45 1.44-1.49 3.47-2.24 6.1-2.24 2.63 0 4.67.77 6.12 2.33 1.44 1.55 2.17 3.67 2.17 6.36v5.85c0 2.48-.68 4.54-2.04 6.16-1.36 1.63-3.41 2.44-6.16 2.44s-4.83-.82-6.23-2.46c-1.41-1.64-2.11-3.68-2.11-6.14zm2-5.9v6.21c0 1.89.55 3.45 1.66 4.68 1.11 1.22 2.67 1.84 4.68 1.84s3.54-.61 4.61-1.82c1.06-1.21 1.59-2.78 1.59-4.7v-6.21c0-2.3-.57-4.02-1.7-5.14-1.14-1.12-2.66-1.68-4.55-1.68-1.89 0-3.41.55-4.56 1.66-1.16 1.11-1.73 2.83-1.73 5.16z"/>
          <path id="&lt;Compound Path&gt;" class="shp4" d="M653.19 141.58c-2.3 0-4.39.5-6.25 1.51v19.24h-1.99v-22.21h1.99v1.19c1.66-1.03 3.77-1.55 6.34-1.55 1.69 0 3.1.28 4.26.84 2.51 1.16 3.77 3.28 3.77 6.39v15.34h-1.95v-15.25c0-1.6-.46-2.86-1.36-3.79-.9-.93-2-1.47-3.3-1.62-.5-.06-1-.09-1.51-.09z"/>
        </g>
      </g>
      <g id="&lt;Group&gt;">
        <path id="&lt;Compound Path&gt;" fill-rule="evenodd" class="shp4" d="M229.07 62.71c-.17 2.53-.33 5.9-.33 11.88v22.37c0 7.7-1.56 14.01-6.06 18.02-4.43 3.77-10.41 4.92-16.31 4.92-5.24 0-10.82-1.07-14.42-3.11l2.46-9.43c2.54 1.48 6.96 3.03 11.63 3.03 5.9 0 10.41-3.19 10.41-10.57V97.2h-.16c-2.38 3.36-6.23 5.25-10.82 5.25-9.92 0-16.96-8.03-16.96-19.59 0-12.86 8.36-21.06 18.19-21.06 5.49 0 8.93 2.38 10.98 5.66h.16l.41-4.75h10.82zm-12.78 16.3c0-.82-.09-1.64-.25-2.29-.9-3.28-3.28-5.49-6.72-5.49-4.51 0-8.19 4.09-8.19 11.39 0 5.98 2.95 10.65 8.19 10.65 3.2 0 5.73-2.13 6.56-5.08.32-.9.41-2.21.41-3.28v-5.9zM278.32 82.29c0 14.67-10.41 21.38-21.14 21.38-11.72 0-20.74-7.7-20.74-20.64 0-12.95 8.53-21.23 21.39-21.23 12.29 0 20.49 8.44 20.49 20.49zm-29.01.41c0 6.88 2.87 12.04 8.19 12.04 4.84 0 7.95-4.83 7.95-12.04 0-5.98-2.29-12.05-7.95-12.05-5.98 0-8.19 6.15-8.19 12.05z"/>
        <path id="&lt;Compound Path&gt;" class="shp4" d="M323.79 89.91c0 5.24.17 9.5.33 12.86h-10.81l-.58-5.65h-.24c-1.56 2.46-5.33 6.55-12.54 6.55-8.11 0-14.09-5.08-14.09-17.45V62.71h12.53v21.55c0 5.81 1.89 9.34 6.23 9.34 3.44 0 5.41-2.38 6.23-4.35.33-.73.41-1.72.41-2.7V62.71h12.53v27.2zM343.05 62.71l5.41 18.59c.98 3.36 1.72 6.56 2.29 9.76h.25c.66-3.28 1.31-6.31 2.21-9.76l5.17-18.59h13.11l-14.92 40.06h-12.45l-14.59-40.06h13.52z"/>
        <path id="&lt;Compound Path&gt;" class="shp0" d="M370.35 94.53c0-5.5 3.77-9.47 9.16-9.47 5.4 0 9.06 3.87 9.06 9.47 0 5.39-3.66 9.36-9.16 9.36-5.29 0-9.06-3.97-9.06-9.36z"/>
        <path id="&lt;Compound Path&gt;" class="shp4" d="M398.37 72.87c0-3.61-.17-6.31-.33-9.43h3.6l.33 7.13h.16c2.14-4.42 7.05-8.03 13.52-8.03 3.77 0 13.69 1.89 13.69 16.63v23.6h-3.85V79.5c0-7.13-2.79-13.6-10.9-13.6-5.57 0-10.24 3.93-11.8 9.01-.33.99-.57 2.3-.57 3.53v24.33h-3.85v-29.9zM469.41 101.05c-1.72.9-5.82 2.54-11.47 2.54-11.39 0-18.93-8.19-18.93-20.07 0-12.46 8.52-20.98 20.32-20.98 4.84 0 8.77 1.39 10.33 2.46l-1.4 3.2c-1.97-1.07-5-2.3-9.34-2.3-10.57 0-15.98 8.11-15.98 17.37 0 10.24 6.48 16.96 15.57 16.96 4.67 0 7.7-1.31 9.83-2.21l1.07 3.03z"/>
      </g>
    </g>
  </g>
</svg>
